<?xml version="1.0" encoding="utf-8"?>
<!-- Generator: Adobe Illustrator 22.0.0, SVG Export Plug-In . SVG Version: 6.00 Build 0)  -->
<svg version="1.1" id="Layer_1" xmlns="http://www.w3.org/2000/svg" xmlns:xlink="http://www.w3.org/1999/xlink" x="0px" y="0px"
	 viewBox="0 0 800 800" style="enable-background:new 0 0 800 800;" xml:space="preserve">
<style type="text/css">
	.st0{fill:url(#SVGID_1_);}
	.st1{fill:url(#SVGID_2_);}
	.st2{fill:url(#SVGID_3_);}
	.st3{fill:url(#SVGID_4_);}
	.st4{fill:#FFFFFF;}
	.st5{fill:url(#SVGID_5_);}
	.st6{fill:url(#SVGID_6_);}
	.st7{fill:url(#SVGID_7_);}
	.st8{fill:url(#SVGID_8_);}
	.st9{fill:url(#SVGID_9_);}
	.st10{fill:url(#SVGID_10_);}
	.st11{fill:url(#SVGID_11_);}
	.st12{fill:url(#SVGID_12_);}
	.st13{fill:url(#SVGID_13_);}
	.st14{fill:none;}
	.st15{fill:url(#SVGID_14_);}
	.st16{fill:url(#SVGID_15_);}
	.st17{fill:url(#SVGID_16_);}
	.st18{fill:url(#SVGID_17_);}
	.st19{fill:url(#SVGID_18_);}
	.st20{fill:url(#SVGID_19_);}
	.st21{fill:url(#SVGID_20_);}
	.st22{fill:url(#SVGID_21_);}
	.st23{fill:url(#SVGID_22_);}
	.st24{fill:url(#SVGID_23_);}
	.st25{fill:url(#SVGID_24_);}
	.st26{fill:url(#SVGID_25_);}
	.st27{fill:url(#SVGID_26_);}
	.st28{fill:url(#SVGID_27_);}
	.st29{fill:url(#SVGID_28_);}
	.st30{fill:url(#SVGID_29_);}
	.st31{fill:#083D5D;}
	.st32{fill:url(#SVGID_30_);}
	.st33{fill:url(#SVGID_31_);}
	.st34{fill:url(#SVGID_32_);}
	.st35{fill:url(#SVGID_33_);}
	.st36{fill:#231F20;}
	.st37{fill:url(#SVGID_34_);}
	.st38{fill:url(#SVGID_35_);}
	.st39{fill:url(#SVGID_36_);}
	.st40{fill:url(#SVGID_37_);}
	.st41{fill:url(#SVGID_38_);}
</style>
<g>
	
		<linearGradient id="SVGID_1_" gradientUnits="userSpaceOnUse" x1="-1606.2976" y1="1385.4611" x2="-942.1033" y2="1385.4611" gradientTransform="matrix(0 -1 1 0 -985.4611 -874.2006)">
		<stop  offset="0.3585" style="stop-color:#84ABB3"/>
		<stop  offset="0.8835" style="stop-color:#CDE2E7"/>
	</linearGradient>
	<path class="st0" d="M592,732.1H208c-77.3,0-140.1-62.9-140.1-140.1V208c0-77.3,62.9-140.1,140.1-140.1H592
		c77.3,0,140.1,62.9,140.1,140.1V592C732.1,669.2,669.2,732.1,592,732.1z M208,83.8c-33,0-64.2,13-87.7,36.5S83.8,175,83.8,208V592
		c0,33,13,64.2,36.5,87.7c23.5,23.5,54.7,36.5,87.7,36.5H592c33,0,64.2-13,87.7-36.5c23.5-23.5,36.5-54.7,36.5-87.7V208
		c0-33-13-64.2-36.5-87.7S625,83.8,592,83.8H208z"/>
	<linearGradient id="SVGID_2_" gradientUnits="userSpaceOnUse" x1="246.6208" y1="400" x2="553.3792" y2="400">
		<stop  offset="0" style="stop-color:#0F1236"/>
		<stop  offset="0.2992" style="stop-color:#23235B"/>
		<stop  offset="0.9129" style="stop-color:#0B819A"/>
	</linearGradient>
	<path class="st1" d="M400,639.4c-58.9,0-106.9-48-106.9-106.9V324.8h-35.7c-4.4,0-8.3-2.6-10-6.7c-1.7-4-0.7-8.7,2.3-11.8
		l142.6-142.6c4.2-4.2,11-4.2,15.3,0l142.6,142.6c3.1,3.1,4,7.7,2.3,11.8c-1.7,4-5.6,6.7-10,6.7h-35.7v207.7
		C506.9,591.4,458.9,639.4,400,639.4z M283.5,303.2h21c3.1,0,6,1.3,8,3.6c2,2.3,3,5.3,2.7,8.4c-0.4,3.4-0.6,6.5-0.6,9.4v207.9
		c0,47,38.3,85.3,85.3,85.3s85.3-38.3,85.3-85.3V324.6c0-3-0.2-6-0.6-9.4c-0.3-3,0.6-6.1,2.7-8.4c2-2.3,5-3.6,8-3.6h21L400,186.7
		L283.5,303.2z"/>
</g>
</svg>
