<?xml version="1.0" encoding="utf-8"?>
<!-- Generator: Adobe Illustrator 22.0.0, SVG Export Plug-In . SVG Version: 6.00 Build 0)  -->
<svg version="1.1" id="Layer_1" xmlns="http://www.w3.org/2000/svg" xmlns:xlink="http://www.w3.org/1999/xlink" x="0px" y="0px"
	 viewBox="0 0 800 800" style="enable-background:new 0 0 800 800;" xml:space="preserve">
<style type="text/css">
	.st0{fill:url(#SVGID_1_);}
	.st1{fill:url(#SVGID_2_);}
	.st2{fill:url(#SVGID_3_);}
	.st3{fill:url(#SVGID_4_);}
	.st4{fill:#FFFFFF;}
	.st5{fill:url(#SVGID_5_);}
	.st6{fill:url(#SVGID_6_);}
	.st7{fill:url(#SVGID_7_);}
	.st8{fill:url(#SVGID_8_);}
	.st9{fill:url(#SVGID_9_);}
	.st10{fill:url(#SVGID_10_);}
	.st11{fill:url(#SVGID_11_);}
	.st12{fill:url(#SVGID_12_);}
	.st13{fill:url(#SVGID_13_);}
	.st14{fill:none;}
	.st15{fill:url(#SVGID_14_);}
	.st16{fill:url(#SVGID_15_);}
	.st17{fill:url(#SVGID_16_);}
	.st18{fill:url(#SVGID_17_);}
	.st19{fill:url(#SVGID_18_);}
	.st20{fill:url(#SVGID_19_);}
	.st21{fill:url(#SVGID_20_);}
	.st22{fill:url(#SVGID_21_);}
	.st23{fill:url(#SVGID_22_);}
	.st24{fill:url(#SVGID_23_);}
	.st25{fill:url(#SVGID_24_);}
	.st26{fill:url(#SVGID_25_);}
	.st27{fill:url(#SVGID_26_);}
	.st28{fill:url(#SVGID_27_);}
	.st29{fill:url(#SVGID_28_);}
	.st30{fill:url(#SVGID_29_);}
	.st31{fill:#083D5D;}
	.st32{fill:url(#SVGID_30_);}
	.st33{fill:url(#SVGID_31_);}
	.st34{fill:url(#SVGID_32_);}
	.st35{fill:url(#SVGID_33_);}
	.st36{fill:#231F20;}
	.st37{fill:url(#SVGID_34_);}
	.st38{fill:url(#SVGID_35_);}
	.st39{fill:url(#SVGID_36_);}
	.st40{fill:url(#SVGID_37_);}
	.st41{fill:url(#SVGID_38_);}
</style>
<g>
	
		<linearGradient id="SVGID_1_" gradientUnits="userSpaceOnUse" x1="-354.8264" y1="2636.9324" x2="309.3684" y2="2636.9324" gradientTransform="matrix(0 -1 1 0 -2236.9324 377.2708)">
		<stop  offset="0.3585" style="stop-color:#84ABB3"/>
		<stop  offset="0.8835" style="stop-color:#CDE2E7"/>
	</linearGradient>
	<path class="st0" d="M592,732.1H208c-77.3,0-140.1-62.9-140.1-140.1V208c0-77.3,62.9-140.1,140.1-140.1H592
		c77.3,0,140.1,62.9,140.1,140.1V592C732.1,669.2,669.2,732.1,592,732.1z M208,83.8c-33,0-64.2,13-87.7,36.5S83.8,175,83.8,208V592
		c0,33,13,64.2,36.5,87.7s54.7,36.5,87.7,36.5H592c33,0,64.2-13,87.7-36.5s36.5-54.7,36.5-87.7V208c0-33-13-64.2-36.5-87.7
		S625,83.8,592,83.8H208z"/>
	<g>
		<path class="st4" d="M670.6,368.2c0-77.6-65.3-139.9-144-135.1c-67.2,4.2-122,58.7-126.4,125.9c-2.8,42.5,14,81,42.3,107.6
			c15.7-10.7,34.6-17,54.9-17c26.7,0,50.8,10.7,68.3,28.1c11.4,11.2,29.1,12.9,42.5,4.3C645.8,458,670.6,416,670.6,368.2z"/>
		<path class="st4" d="M129.4,368.2c0-77.6,65.3-139.9,144-135.1c67.2,4.2,122,58.7,126.4,125.9c2.8,42.5-14,81-42.3,107.6
			c-15.7-10.7-34.6-17-54.9-17c-26.7,0-50.8,10.7-68.3,28.1c-11.4,11.2-29.1,12.9-42.5,4.3C154.2,458,129.4,416,129.4,368.2z"/>
		<g>
			<path class="st4" d="M442.6,466.7c-28.4,19.4-46,53.3-42,91.1c4.7,44.9,40.8,81.3,85.7,86.4c58.9,6.6,108.8-39.3,108.8-96.9
				c0-18.9-5.5-36.5-14.8-51.4c-14.1,5-29.2,7.7-45,7.7C499.4,503.5,466.8,489.5,442.6,466.7z"/>
			<path class="st4" d="M357.4,466.7c28.4,19.4,46,53.3,42,91.1c-4.7,44.9-40.8,81.3-85.7,86.4c-58.9,6.6-108.8-39.3-108.8-96.9
				c0-18.9,5.5-36.5,14.8-51.4c14.1,5,29.2,7.7,45,7.7C300.6,503.5,333.2,489.5,357.4,466.7z"/>
		</g>
		<g>
			<path class="st4" d="M497.5,449.7c-20.4,0-39.3,6.3-54.9,17c24.2,22.8,56.8,36.8,92.7,36.8c15.8,0,30.9-2.7,45-7.7
				C563.1,468.2,532.5,449.7,497.5,449.7z"/>
			<path class="st4" d="M302.5,449.7c20.4,0,39.3,6.3,54.9,17c-24.2,22.8-56.8,36.8-92.7,36.8c-15.8,0-30.9-2.7-45-7.7
				C236.9,468.2,267.5,449.7,302.5,449.7z"/>
		</g>
		<g>
			<line class="st4" x1="394.3" y1="299.3" x2="349.4" y2="155.2"/>
			<line class="st4" x1="405.7" y1="299.3" x2="450.6" y2="155.2"/>
		</g>
		<g>
			<path class="st14" d="M337.1,537.6v-45.8c-1.3,0.8-2.7,1.4-4,2.1c-1.7,0.9-3.4,1.9-5.1,2.7c-2.2,1.1-4.4,2.1-6.7,3
				c-1.7,0.7-3.5,1.5-5.2,2.2c-2.3,0.9-4.7,1.7-7.1,2.4c-1.7,0.6-3.5,1.2-5.2,1.7c-2.5,0.7-5.1,1.3-7.7,1.9c-1.7,0.4-3.3,0.8-5,1.1
				c-1.6,0.3-3.2,0.5-4.8,0.7c14.7,15.2,32.1,27.3,51.5,35.6C337.3,542.8,337.1,540.3,337.1,537.6z"/>
			<path class="st14" d="M298.6,490.9c1.5-0.4,3-0.9,4.4-1.4c2.1-0.7,4.3-1.4,6.4-2.2c1.5-0.6,2.9-1.1,4.4-1.7
				c2.1-0.9,4.1-1.8,6.1-2.8c1.4-0.7,2.8-1.4,4.2-2.1c2-1.1,4-2.2,6-3.4c1.3-0.8,2.6-1.5,3.8-2.3c1.1-0.7,2.1-1.5,3.2-2.2v-8
				c-0.9-0.4-1.7-0.8-2.6-1.2c-0.4-0.2-0.9-0.3-1.3-0.4c-2.7-1-5.5-1.9-8.3-2.6c-0.5-0.1-1-0.3-1.5-0.4c-3-0.7-6.1-1.3-9.2-1.7
				c-0.7-0.1-1.3-0.2-2-0.2c-3.2-0.3-6.4-0.6-9.7-0.6c-3.2,0-6.4,0.2-9.6,0.5c-1.1,0.1-2.1,0.3-3.2,0.5c-2.1,0.3-4.1,0.6-6.1,1
				c-1.3,0.3-2.5,0.6-3.8,0.9c-1.8,0.5-3.5,0.9-5.2,1.5c-1.3,0.4-2.7,0.9-4,1.4c-1.5,0.6-3,1.2-4.5,1.9c-1.4,0.6-2.8,1.3-4.2,2
				c-1.3,0.7-2.6,1.4-3.8,2.1c-1.5,0.8-2.9,1.7-4.3,2.6c-1,0.7-2,1.4-3,2.1c-3.9,2.8-7.6,5.8-11.1,9.2c0,0,0,0-0.1,0
				c-2.5,2.5-4.9,5.1-7.1,7.9c0,0,0.1,0,0.1,0c0.1,0,0.3,0.1,0.4,0.1c3,0.8,6,1.4,9.1,1.9c1,0.2,1.9,0.3,2.9,0.5
				c2.3,0.4,4.7,0.7,7.1,0.9c1,0.1,1.9,0.2,2.9,0.3c3.2,0.2,6.5,0.4,9.7,0.4c3.9,0,7.7-0.2,11.5-0.5c1.2-0.1,2.5-0.3,3.7-0.5
				c2.6-0.3,5.1-0.6,7.6-1.1c1.5-0.3,2.9-0.6,4.3-0.9C294.1,492.1,296.4,491.5,298.6,490.9z"/>
			<path class="st14" d="M249.1,456.4c1.1-0.7,2.2-1.4,3.4-2c3.3-1.8,6.7-3.4,10.2-4.9c0.9-0.4,1.9-0.6,2.8-1c2.9-1.1,5.7-2,8.7-2.9
				c1.3-0.4,2.6-0.7,4-1c2.8-0.7,5.6-1.2,8.4-1.6c1.2-0.2,2.5-0.4,3.7-0.5c4-0.5,8.1-0.8,12.2-0.8c2.5,0,5.1,0.1,7.6,0.3
				c0.8,0.1,1.6,0.2,2.5,0.2c1.7,0.2,3.4,0.3,5,0.6c1,0.1,1.9,0.3,2.9,0.5c1.5,0.3,3,0.5,4.5,0.8c1,0.2,2,0.5,3,0.7
				c1.4,0.4,2.8,0.7,4.2,1.1c1,0.3,2,0.6,3,0.9c0.6,0.2,1.3,0.4,1.9,0.6v-93.4c0-24.3,13.8-45.3,34-55.8
				c-21.4-32.5-57.2-54.8-98.3-57.3c-2.8-0.2-5.5-0.3-8.2-0.3c-32.6,0-63.2,12.1-87.1,34.5c-1.7,1.6-3.1,3.3-4.7,4.9
				c-0.1,2-0.1,4.1-0.1,6.1C172.6,351.5,200.5,413.2,249.1,456.4z"/>
			<path class="st14" d="M504,507.9c-2.6-0.6-5.2-1.1-7.7-1.9c-1.8-0.5-3.5-1.1-5.2-1.7c-2.4-0.8-4.8-1.5-7.1-2.4
				c-1.8-0.7-3.5-1.5-5.2-2.2c-2.3-1-4.5-1.9-6.7-3c-1.7-0.9-3.4-1.8-5.1-2.7c-1.3-0.7-2.7-1.4-4-2.1v45.8c0,2.6-0.2,5.2-0.5,7.8
				c19.4-8.3,36.8-20.4,51.5-35.6c-1.6-0.2-3.2-0.4-4.8-0.7C507.4,508.7,505.7,508.3,504,507.9z"/>
			<path class="st14" d="M462.9,354.2v93.4c0.6-0.2,1.3-0.4,1.9-0.6c1-0.3,2-0.6,3-0.9c1.4-0.4,2.8-0.8,4.2-1.1c1-0.3,2-0.5,3-0.7
				c1.5-0.3,3-0.6,4.5-0.8c1-0.2,1.9-0.4,2.9-0.5c1.7-0.2,3.3-0.4,5-0.6c0.8-0.1,1.6-0.2,2.5-0.2c2.5-0.2,5-0.3,7.6-0.3
				c4.1,0,8.2,0.3,12.2,0.8c1.2,0.1,2.5,0.4,3.7,0.5c2.8,0.4,5.6,1,8.4,1.6c1.3,0.3,2.6,0.6,3.9,1c3,0.8,5.9,1.8,8.7,2.9
				c0.9,0.3,1.8,0.6,2.7,1c3.5,1.4,6.9,3.1,10.2,4.9c1.1,0.6,2.3,1.3,3.4,2c48.6-43.2,76.5-104.8,76.5-170c0-2.1-0.1-4.1-0.1-6.1
				c-1.6-1.6-3-3.3-4.7-4.9c-25.9-24.3-59.7-36.5-95.3-34.3c-41.1,2.6-76.9,24.8-98.3,57.3C449.1,308.9,462.9,330,462.9,354.2z"/>
			<path class="st14" d="M523.8,495c3.8,0.3,7.6,0.5,11.5,0.5c3.3,0,6.5-0.2,9.7-0.4c1-0.1,1.9-0.2,2.9-0.3c2.4-0.2,4.7-0.5,7-0.9
				c1-0.2,2-0.3,2.9-0.5c3-0.5,6-1.2,9-1.9c0.2,0,0.3-0.1,0.5-0.1c0,0,0.1,0,0.1,0c-2.2-2.8-4.6-5.4-7.1-7.9c0,0,0,0,0,0
				c-3.4-3.4-7.2-6.4-11-9.1c-1-0.7-2-1.5-3.1-2.2c-1.4-0.9-2.8-1.7-4.3-2.5c-1.3-0.7-2.6-1.5-3.9-2.2c-1.4-0.7-2.7-1.3-4.1-1.9
				c-1.5-0.7-3-1.3-4.6-1.9c-1.3-0.5-2.6-1-4-1.4c-1.7-0.6-3.5-1.1-5.2-1.5c-1.2-0.3-2.5-0.7-3.7-0.9c-2-0.4-4.1-0.8-6.1-1.1
				c-1.1-0.2-2.1-0.4-3.2-0.5c-3.2-0.3-6.3-0.5-9.6-0.5c-3.3,0-6.5,0.2-9.7,0.6c-0.7,0.1-1.3,0.1-2,0.2c-3.1,0.4-6.2,1-9.2,1.7
				c-0.5,0.1-1,0.3-1.5,0.4c-2.8,0.7-5.6,1.6-8.3,2.6c-0.4,0.2-0.9,0.3-1.3,0.4c-0.9,0.3-1.7,0.8-2.6,1.2v8c1.1,0.7,2.1,1.5,3.2,2.2
				c1.3,0.8,2.6,1.6,3.8,2.3c2,1.2,4,2.4,6,3.4c1.4,0.7,2.8,1.4,4.2,2.1c2,1,4.1,1.9,6.1,2.8c1.5,0.6,2.9,1.2,4.4,1.7
				c2.1,0.8,4.2,1.5,6.4,2.2c1.5,0.5,3,0.9,4.4,1.4c2.2,0.6,4.5,1.1,6.8,1.6c1.4,0.3,2.9,0.7,4.3,0.9c2.5,0.5,5.1,0.8,7.6,1.1
				C521.3,494.7,522.6,494.9,523.8,495z"/>
			<path class="st14" d="M343.3,564.6c-30.1-10.4-56.5-28.6-77-53.2c-0.5,0-1.1,0.1-1.6,0.1c-3.8,0-7.6-0.2-11.4-0.5
				c-1.2-0.1-2.4-0.3-3.7-0.4c-2.5-0.3-5.1-0.6-7.6-1c-1.4-0.2-2.9-0.5-4.3-0.8c-2.3-0.4-4.6-0.9-6.9-1.5c-1.5-0.4-2.9-0.7-4.4-1.1
				c-1-0.3-2-0.5-3-0.8c-6.9,12.9-10.5,27.3-10.5,41.9c0,25.5,10.9,49.8,29.9,66.8c19.3,17.2,44.2,25.1,70.1,22.2
				c26.9-3,50.3-18.3,64.5-40C362.4,590.4,350.2,579,343.3,564.6z"/>
			<path class="st14" d="M229.1,471.7c1.3-1.2,2.6-2.3,3.9-3.5c0.9-0.8,1.8-1.7,2.8-2.5c-46.9-43-75-102.3-78.6-165.6
				c-12.8,20.1-19.8,43.4-19.8,68.1c0,43.5,21.9,83.6,58.6,107.2c10.3,6.6,24,5.3,32.6-3.2C228.7,472,228.9,471.8,229.1,471.7z"/>
			<path class="st14" d="M573.6,506.2c-1.4,0.4-2.9,0.8-4.4,1.1c-2.3,0.6-4.6,1-6.9,1.5c-1.4,0.3-2.8,0.6-4.3,0.8
				c-2.5,0.4-5.1,0.7-7.6,1c-1.2,0.1-2.4,0.3-3.7,0.4c-3.8,0.3-7.6,0.5-11.4,0.5c-0.5,0-1.1-0.1-1.6-0.1
				c-20.4,24.5-46.9,42.8-77,53.2c-6.9,14.4-19.1,25.8-34.1,31.6c14.2,21.7,37.6,37,64.5,40c25.9,2.9,50.8-5,70.1-22.2
				c19-17,29.9-41.3,29.9-66.8c0-14.6-3.6-28.9-10.5-41.9C575.6,505.7,574.6,505.9,573.6,506.2z"/>
			<path class="st14" d="M642.9,300.2c-3.6,63.3-31.7,122.6-78.6,165.6c1,0.8,1.8,1.7,2.8,2.5c1.3,1.1,2.6,2.2,3.9,3.5
				c0.2,0.2,0.4,0.3,0.6,0.5c8.6,8.5,22.3,9.8,32.6,3.2c36.7-23.6,58.6-63.6,58.6-107.2C662.7,343.6,655.7,320.3,642.9,300.2z"/>
			<linearGradient id="SVGID_2_" gradientUnits="userSpaceOnUse" x1="400.0006" y1="834.2492" x2="400.0006" y2="220.2934">
				<stop  offset="0" style="stop-color:#0F1236"/>
				<stop  offset="0.2992" style="stop-color:#23235B"/>
				<stop  offset="0.9129" style="stop-color:#0B819A"/>
			</linearGradient>
			<path class="st1" d="M640.8,271.4c-0.1-0.1-0.2-0.2-0.3-0.3c-2.3-2.5-4.6-5-7-7.3c-29.1-27.4-67.2-41.1-107.2-38.6
				c-44.5,2.8-83.6,26-107.9,60.3l39.9-128l-15.2-4.7l-43.1,138l-43.1-138l-15.2,4.7l39.9,128c-24.3-34.4-63.4-57.6-107.9-60.3
				c-40-2.5-78.1,11.2-107.2,38.6c-2.5,2.3-4.7,4.8-7,7.3c-0.1,0.1-0.2,0.2-0.3,0.3c-24.1,26.3-37.9,60.9-37.9,96.8
				c0,49,24.6,94.1,65.9,120.6c7,4.5,15,6.7,22.9,6.7c0.2,0,0.4-0.1,0.6-0.1c-9,15.9-13.8,33.7-13.8,51.9c0,30,12.8,58.7,35.2,78.7
				c19.4,17.3,44.6,26.8,70.5,26.8c4,0,7.9-0.2,11.9-0.7c33.7-3.8,62.7-23.8,79-51.9c2.1,0.2,4.2,0.3,6.3,0.3c2.1,0,4.2-0.1,6.3-0.3
				c16.4,28.1,45.4,48.1,79,51.9c4,0.4,8,0.7,11.9,0.7c26,0,51.1-9.5,70.5-26.8c22.4-20,35.2-48.7,35.2-78.7
				c0-18.2-4.8-36-13.8-51.9c0.2,0,0.4,0.1,0.6,0.1c7.9,0,15.9-2.2,22.9-6.7c41.3-26.5,65.9-71.6,65.9-120.6
				C678.6,332.4,664.9,297.7,640.8,271.4z M527.2,241.1c35.6-2.2,69.5,10,95.3,34.3c1.7,1.6,3.1,3.3,4.7,4.9c0.1,2,0.1,4.1,0.1,6.1
				c0,65.2-27.8,126.8-76.5,170c-1.1-0.7-2.2-1.3-3.4-2c-3.3-1.8-6.7-3.4-10.2-4.9c-0.9-0.4-1.8-0.6-2.7-1c-2.9-1.1-5.8-2-8.7-2.9
				c-1.3-0.4-2.6-0.7-3.9-1c-2.8-0.7-5.6-1.2-8.4-1.6c-1.2-0.2-2.5-0.4-3.7-0.5c-4-0.5-8.1-0.8-12.2-0.8c-2.5,0-5.1,0.1-7.6,0.3
				c-0.8,0.1-1.6,0.2-2.5,0.2c-1.7,0.2-3.4,0.3-5,0.6c-1,0.1-1.9,0.3-2.9,0.5c-1.5,0.3-3,0.5-4.5,0.8c-1,0.2-2,0.5-3,0.7
				c-1.4,0.4-2.8,0.7-4.2,1.1c-1,0.3-2,0.6-3,0.9c-0.6,0.2-1.3,0.4-1.9,0.6v-93.4c0-24.3-13.8-45.3-34-55.8
				C450.3,265.9,486.1,243.6,527.2,241.1z M512.5,493.5c-1.5-0.3-2.9-0.6-4.3-0.9c-2.3-0.5-4.5-1-6.8-1.6c-1.5-0.4-3-0.9-4.4-1.4
				c-2.1-0.7-4.3-1.4-6.4-2.2c-1.5-0.6-2.9-1.1-4.4-1.7c-2.1-0.9-4.1-1.8-6.1-2.8c-1.4-0.7-2.8-1.4-4.2-2.1c-2-1.1-4-2.2-6-3.4
				c-1.3-0.8-2.6-1.5-3.8-2.3c-1.1-0.7-2.1-1.5-3.2-2.2v-8c0.9-0.4,1.7-0.8,2.6-1.2c0.4-0.2,0.9-0.3,1.3-0.4c2.7-1,5.5-1.9,8.3-2.6
				c0.5-0.1,1-0.3,1.5-0.4c3-0.7,6.1-1.3,9.2-1.7c0.7-0.1,1.3-0.2,2-0.2c3.2-0.3,6.4-0.6,9.7-0.6c3.2,0,6.4,0.2,9.6,0.5
				c1.1,0.1,2.1,0.3,3.2,0.5c2.1,0.3,4.1,0.6,6.1,1.1c1.3,0.3,2.5,0.6,3.7,0.9c1.8,0.5,3.5,1,5.2,1.5c1.3,0.4,2.7,0.9,4,1.4
				c1.5,0.6,3.1,1.2,4.6,1.9c1.4,0.6,2.8,1.2,4.1,1.9c1.3,0.7,2.6,1.4,3.9,2.2c1.4,0.8,2.9,1.6,4.3,2.5c1,0.7,2,1.5,3.1,2.2
				c3.9,2.8,7.6,5.8,11,9.1c0,0,0,0,0,0c2.5,2.5,4.9,5.1,7.1,7.9c0,0-0.1,0-0.1,0c-0.2,0-0.3,0.1-0.5,0.1c-3,0.8-6,1.4-9,1.9
				c-1,0.2-1.9,0.3-2.9,0.5c-2.3,0.4-4.7,0.7-7,0.9c-1,0.1-1.9,0.2-2.9,0.3c-3.2,0.2-6.5,0.4-9.7,0.4c-3.9,0-7.7-0.2-11.5-0.5
				c-1.2-0.1-2.5-0.3-3.7-0.5C517.6,494.3,515,493.9,512.5,493.5z M513.9,509.8c-14.7,15.2-32.1,27.3-51.5,35.6
				c0.3-2.5,0.5-5.1,0.5-7.8v-45.8c1.3,0.8,2.7,1.4,4,2.1c1.7,0.9,3.4,1.9,5.1,2.7c2.2,1.1,4.4,2.1,6.7,3c1.7,0.7,3.5,1.5,5.2,2.2
				c2.3,0.9,4.7,1.7,7.1,2.4c1.7,0.6,3.5,1.2,5.2,1.7c2.5,0.7,5.1,1.3,7.7,1.9c1.7,0.4,3.3,0.8,5,1.1
				C510.6,509.3,512.3,509.5,513.9,509.8z M172.8,280.3c1.6-1.6,3-3.3,4.7-4.9c23.9-22.4,54.5-34.5,87.1-34.5c2.7,0,5.5,0.1,8.2,0.3
				c41.1,2.6,76.9,24.8,98.3,57.3c-20.2,10.5-34,31.5-34,55.8v93.4c-0.6-0.2-1.3-0.4-1.9-0.6c-1-0.3-2-0.6-3-0.9
				c-1.4-0.4-2.8-0.8-4.2-1.1c-1-0.3-2-0.5-3-0.7c-1.5-0.3-3-0.6-4.5-0.8c-1-0.2-1.9-0.4-2.9-0.5c-1.7-0.2-3.3-0.4-5-0.6
				c-0.8-0.1-1.6-0.2-2.5-0.2c-2.5-0.2-5-0.3-7.6-0.3c-4.1,0-8.2,0.3-12.2,0.8c-1.3,0.1-2.5,0.4-3.7,0.5c-2.8,0.4-5.6,1-8.4,1.6
				c-1.3,0.3-2.6,0.6-4,1c-2.9,0.8-5.8,1.8-8.7,2.9c-0.9,0.3-1.9,0.6-2.8,1c-3.5,1.4-6.9,3.1-10.2,4.9c-1.2,0.6-2.3,1.3-3.4,2
				c-48.6-43.2-76.5-104.9-76.5-170C172.6,284.4,172.7,282.3,172.8,280.3z M290.9,509c1.7-0.3,3.4-0.8,5-1.1
				c2.6-0.6,5.2-1.1,7.7-1.9c1.8-0.5,3.5-1.1,5.2-1.7c2.4-0.8,4.8-1.5,7.1-2.4c1.8-0.7,3.5-1.5,5.2-2.2c2.3-1,4.5-1.9,6.7-3
				c1.7-0.9,3.4-1.8,5.1-2.7c1.3-0.7,2.7-1.4,4-2.1v45.8c0,2.6,0.2,5.2,0.5,7.7c-19.4-8.3-36.8-20.4-51.5-35.6
				C287.7,509.5,289.4,509.3,290.9,509z M279.9,494.6c-1.2,0.1-2.5,0.4-3.7,0.5c-3.8,0.3-7.6,0.5-11.5,0.5c-3.3,0-6.5-0.2-9.7-0.4
				c-1-0.1-1.9-0.2-2.9-0.3c-2.4-0.2-4.7-0.5-7.1-0.9c-1-0.2-1.9-0.3-2.9-0.5c-3-0.5-6.1-1.2-9.1-1.9c-0.1,0-0.3-0.1-0.4-0.1
				c0,0-0.1,0-0.1,0c2.2-2.8,4.6-5.4,7.1-7.9c0,0,0,0,0.1,0c3.5-3.4,7.2-6.4,11.1-9.2c1-0.7,1.9-1.4,3-2.1c1.4-0.9,2.9-1.7,4.3-2.6
				c1.3-0.7,2.5-1.5,3.8-2.1c1.4-0.7,2.8-1.3,4.2-2c1.5-0.7,3-1.3,4.5-1.9c1.3-0.5,2.7-1,4-1.4c1.7-0.6,3.5-1.1,5.2-1.5
				c1.2-0.3,2.5-0.7,3.8-0.9c2-0.4,4.1-0.8,6.1-1c1.1-0.2,2.1-0.4,3.2-0.5c3.2-0.3,6.3-0.5,9.6-0.5c3.3,0,6.5,0.2,9.7,0.6
				c0.7,0.1,1.3,0.1,2,0.2c3.1,0.4,6.2,1,9.2,1.7c0.5,0.1,1,0.3,1.5,0.4c2.8,0.7,5.6,1.6,8.3,2.6c0.4,0.2,0.9,0.3,1.3,0.4
				c0.9,0.3,1.7,0.8,2.6,1.2v8c-1.1,0.7-2.1,1.5-3.2,2.2c-1.3,0.8-2.6,1.6-3.8,2.3c-2,1.2-4,2.4-6,3.4c-1.4,0.7-2.8,1.4-4.2,2.1
				c-2,1-4.1,1.9-6.1,2.8c-1.5,0.6-2.9,1.2-4.4,1.7c-2.1,0.8-4.2,1.5-6.4,2.2c-1.5,0.5-3,0.9-4.4,1.4c-2.2,0.6-4.5,1.1-6.8,1.6
				c-1.4,0.3-2.9,0.7-4.3,0.9C285,493.9,282.4,494.3,279.9,494.6z M195.9,475.4c-36.7-23.6-58.6-63.6-58.6-107.2
				c0-24.6,7-47.9,19.8-68.1c3.6,63.3,31.7,122.6,78.6,165.6c-0.9,0.8-1.8,1.6-2.8,2.5c-1.3,1.2-2.6,2.3-3.9,3.5
				c-0.2,0.2-0.4,0.3-0.5,0.5C219.9,480.7,206.2,482,195.9,475.4z M312.9,636.3c-25.9,2.9-50.8-5-70.1-22.2
				c-19-17-29.9-41.3-29.9-66.8c0-14.6,3.6-28.9,10.5-41.9c1,0.3,2,0.5,3,0.8c1.5,0.4,2.9,0.8,4.4,1.1c2.3,0.6,4.6,1,6.9,1.5
				c1.4,0.3,2.9,0.6,4.3,0.8c2.5,0.4,5.1,0.7,7.6,1c1.2,0.1,2.4,0.3,3.7,0.4c3.8,0.3,7.6,0.5,11.4,0.5c0.5,0,1.1-0.1,1.6-0.1
				c20.5,24.5,46.9,42.8,77,53.2c6.9,14.5,19.1,25.9,34.1,31.7C363.2,618,339.8,633.2,312.9,636.3z M400,588.1
				c-28.1,0-51.1-24-51.1-53.3V357c0-29.3,23-53.3,51.1-53.3c28.1,0,51.1,24,51.1,53.3v177.9C451.1,564.2,428.1,588.1,400,588.1z
				 M557.2,614.1c-19.3,17.2-44.2,25.1-70.1,22.2c-26.9-3-50.3-18.3-64.5-40c15-5.8,27.2-17.2,34.1-31.6
				c30.1-10.4,56.5-28.7,77-53.2c0.5,0,1.1,0.1,1.6,0.1c3.8,0,7.6-0.2,11.4-0.5c1.2-0.1,2.4-0.3,3.7-0.4c2.5-0.3,5.1-0.6,7.6-1
				c1.4-0.2,2.9-0.5,4.3-0.8c2.3-0.4,4.6-0.9,6.9-1.5c1.5-0.4,2.9-0.7,4.4-1.1c1-0.3,2-0.5,3.1-0.8c6.9,12.9,10.5,27.3,10.5,41.9
				C587.1,572.7,576.2,597.1,557.2,614.1z M604.1,475.4c-10.3,6.6-24,5.3-32.6-3.2c-0.2-0.2-0.4-0.3-0.6-0.5
				c-1.2-1.2-2.6-2.3-3.9-3.5c-0.9-0.8-1.8-1.7-2.8-2.5c46.9-43,75-102.2,78.6-165.6c12.8,20.1,19.8,43.4,19.8,68
				C662.7,411.7,640.8,451.8,604.1,475.4z"/>
		</g>
	</g>
</g>
</svg>
