<?xml version="1.0" encoding="utf-8"?>
<!-- Generator: Adobe Illustrator 22.0.0, SVG Export Plug-In . SVG Version: 6.00 Build 0)  -->
<svg version="1.1" id="Layer_1" xmlns="http://www.w3.org/2000/svg" xmlns:xlink="http://www.w3.org/1999/xlink" x="0px" y="0px"
	 viewBox="0 0 800 800" style="enable-background:new 0 0 800 800;" xml:space="preserve">
<style type="text/css">
	.st0{fill:url(#SVGID_1_);}
	.st1{fill:url(#SVGID_2_);}
	.st2{fill:url(#SVGID_3_);}
	.st3{fill:url(#SVGID_4_);}
	.st4{fill:#FFFFFF;}
	.st5{fill:url(#SVGID_5_);}
	.st6{fill:url(#SVGID_6_);}
	.st7{fill:url(#SVGID_7_);}
	.st8{fill:url(#SVGID_8_);}
	.st9{fill:url(#SVGID_9_);}
	.st10{fill:url(#SVGID_10_);}
	.st11{fill:url(#SVGID_11_);}
	.st12{fill:url(#SVGID_12_);}
	.st13{fill:url(#SVGID_13_);}
	.st14{fill:none;}
	.st15{fill:url(#SVGID_14_);}
	.st16{fill:url(#SVGID_15_);}
	.st17{fill:url(#SVGID_16_);}
	.st18{fill:url(#SVGID_17_);}
	.st19{fill:url(#SVGID_18_);}
	.st20{fill:url(#SVGID_19_);}
	.st21{fill:url(#SVGID_20_);}
	.st22{fill:url(#SVGID_21_);}
	.st23{fill:url(#SVGID_22_);}
	.st24{fill:url(#SVGID_23_);}
	.st25{fill:url(#SVGID_24_);}
	.st26{fill:url(#SVGID_25_);}
	.st27{fill:url(#SVGID_26_);}
	.st28{fill:url(#SVGID_27_);}
	.st29{fill:url(#SVGID_28_);}
	.st30{fill:url(#SVGID_29_);}
	.st31{fill:#083D5D;}
	.st32{fill:url(#SVGID_30_);}
	.st33{fill:url(#SVGID_31_);}
	.st34{fill:url(#SVGID_32_);}
	.st35{fill:url(#SVGID_33_);}
	.st36{fill:#231F20;}
	.st37{fill:url(#SVGID_34_);}
	.st38{fill:url(#SVGID_35_);}
	.st39{fill:url(#SVGID_36_);}
	.st40{fill:url(#SVGID_37_);}
	.st41{fill:url(#SVGID_38_);}
</style>
<g>
	
		<linearGradient id="SVGID_1_" gradientUnits="userSpaceOnUse" x1="-2912.2654" y1="79.4938" x2="-2248.0701" y2="79.4938" gradientTransform="matrix(0 -1 1 0 320.5062 -2180.168)">
		<stop  offset="0.3585" style="stop-color:#84ABB3"/>
		<stop  offset="0.8835" style="stop-color:#CDE2E7"/>
	</linearGradient>
	<path class="st0" d="M592,732.1H208c-77.3,0-140.1-62.9-140.1-140.1V208c0-77.3,62.9-140.1,140.1-140.1H592
		c77.3,0,140.1,62.9,140.1,140.1V592C732.1,669.2,669.2,732.1,592,732.1z M208,83.8c-33,0-64.2,13-87.7,36.5S83.8,175,83.8,208V592
		c0,33,13,64.2,36.5,87.7c23.5,23.5,54.7,36.5,87.7,36.5H592c33,0,64.2-13,87.7-36.5c23.5-23.5,36.5-54.7,36.5-87.7V208
		c0-33-13-64.2-36.5-87.7S625,83.8,592,83.8H208z"/>
	<g>
		<path class="st4" d="M520.1,571.6c-38.9,0-70.5-31.6-70.5-70.5c0-38.9,31.6-70.5,70.5-70.5c26.4,0,49.5,14.6,61.5,36.1v-49.6
			c0-34.4-13.4-65.7-35.2-89.3c-2.7-2.5-5.2-5-7.7-7.7c-23.6-21.7-54.9-35.2-89.3-35.2h-45.8c22.6-11.7,38-35.3,38-62.5
			c0-38.9-31.6-70.5-70.5-70.5c-38.9,0-70.5,31.6-70.5,70.5c0,27.2,15.4,50.8,38,62.5H218.4v231c0,72.7,59.5,132.2,132.2,132.2h231
			V535.5C569.5,557,546.5,571.6,520.1,571.6z"/>
		<linearGradient id="SVGID_2_" gradientUnits="userSpaceOnUse" x1="210.4678" y1="399.9999" x2="589.5322" y2="399.9999">
			<stop  offset="8.707932e-02" style="stop-color:#0B819A"/>
			<stop  offset="0.7008" style="stop-color:#23235B"/>
			<stop  offset="1" style="stop-color:#0F1236"/>
		</linearGradient>
		<path class="st1" d="M581.6,656h-231c-77.3,0-140.1-62.9-140.1-140.1v-231c0-4.4,3.6-8,8-8h96.4c-14-14.4-22.1-33.8-22.1-54.6
			c0-43.3,35.2-78.4,78.4-78.4s78.4,35.2,78.4,78.4c0,20.8-8.1,40.2-22.1,54.6h21.9c35,0,68.6,13.2,94.7,37.3
			c0.2,0.1,0.3,0.3,0.5,0.5c2.3,2.5,4.7,4.9,7.3,7.3c0.2,0.1,0.3,0.3,0.5,0.5c24,26.1,37.3,59.7,37.3,94.7v49.6
			c0,3.6-2.4,6.8-5.9,7.7c-3.5,0.9-7.2-0.7-9-3.8c-11.1-19.8-32-32.1-54.6-32.1c-34.5,0-62.5,28.1-62.5,62.5s28.1,62.5,62.5,62.5
			c22.6,0,43.5-12.3,54.6-32.1c1.8-3.2,5.4-4.7,9-3.8c3.5,0.9,5.9,4.1,5.9,7.7v112.6C589.5,652.5,586,656,581.6,656z M226.4,292.9
			v223c0,33,13,64.2,36.5,87.7s54.7,36.5,87.7,36.5h223v-81.8c-14.3,13.4-33.4,21.2-53.6,21.2c-43.3,0-78.4-35.2-78.4-78.4
			s35.2-78.4,78.4-78.4c20.1,0,39.2,7.8,53.6,21.2v-26.7c0-30.9-11.7-60.6-32.8-83.7c-2.7-2.5-5.2-5-7.7-7.7
			c-23.1-21.2-52.8-32.8-83.7-32.8h-45.8c-3.7,0-6.9-2.5-7.7-6.1s0.8-7.3,4.1-8.9c20.8-10.8,33.7-32.1,33.7-55.5
			c0-34.5-28.1-62.5-62.5-62.5s-62.5,28.1-62.5,62.5c0,23.4,12.9,44.6,33.7,55.5c3.3,1.7,4.9,5.4,4.1,8.9s-4.1,6.1-7.7,6.1H226.4z"
			/>
	</g>
</g>
</svg>
