<?xml version="1.0" encoding="utf-8"?>
<!-- Generator: Adobe Illustrator 22.0.0, SVG Export Plug-In . SVG Version: 6.00 Build 0)  -->
<svg version="1.1" id="Layer_1" xmlns="http://www.w3.org/2000/svg" xmlns:xlink="http://www.w3.org/1999/xlink" x="0px" y="0px"
	 viewBox="0 0 800 800" style="enable-background:new 0 0 800 800;" xml:space="preserve">
<style type="text/css">
	.st0{fill:url(#SVGID_1_);}
	.st1{fill:url(#SVGID_2_);}
	.st2{fill:url(#SVGID_3_);}
	.st3{fill:url(#SVGID_4_);}
	.st4{fill:#FFFFFF;}
	.st5{fill:url(#SVGID_5_);}
	.st6{fill:url(#SVGID_6_);}
	.st7{fill:url(#SVGID_7_);}
	.st8{fill:url(#SVGID_8_);}
	.st9{fill:url(#SVGID_9_);}
	.st10{fill:url(#SVGID_10_);}
	.st11{fill:url(#SVGID_11_);}
	.st12{fill:url(#SVGID_12_);}
	.st13{fill:url(#SVGID_13_);}
	.st14{fill:none;}
	.st15{fill:url(#SVGID_14_);}
	.st16{fill:url(#SVGID_15_);}
	.st17{fill:url(#SVGID_16_);}
	.st18{fill:url(#SVGID_17_);}
	.st19{fill:url(#SVGID_18_);}
	.st20{fill:url(#SVGID_19_);}
	.st21{fill:url(#SVGID_20_);}
	.st22{fill:url(#SVGID_21_);}
	.st23{fill:url(#SVGID_22_);}
	.st24{fill:url(#SVGID_23_);}
	.st25{fill:url(#SVGID_24_);}
	.st26{fill:url(#SVGID_25_);}
	.st27{fill:url(#SVGID_26_);}
	.st28{fill:url(#SVGID_27_);}
	.st29{fill:url(#SVGID_28_);}
	.st30{fill:url(#SVGID_29_);}
	.st31{fill:#083D5D;}
	.st32{fill:url(#SVGID_30_);}
	.st33{fill:url(#SVGID_31_);}
	.st34{fill:url(#SVGID_32_);}
	.st35{fill:url(#SVGID_33_);}
	.st36{fill:#231F20;}
	.st37{fill:url(#SVGID_34_);}
	.st38{fill:url(#SVGID_35_);}
	.st39{fill:url(#SVGID_36_);}
	.st40{fill:url(#SVGID_37_);}
	.st41{fill:url(#SVGID_38_);}
</style>
<g>
	<g>
		<path class="st4" d="M158.1,298.5c0-38.9,31.6-70.5,70.5-70.5c38.9,0,70.5,31.6,70.5,70.5c0,27.2-15.4,50.8-38,62.5h45.8
			c34.4,0,65.7,13.4,89.3,35.2c-21.7-23.6-35.2-54.9-35.2-89.3v-49.6c12.1,21.5,35.1,36.1,61.5,36.1c38.9,0,70.5-31.6,70.5-70.5
			c0-38.9-31.6-70.5-70.5-70.5c-26.4,0-49.5,14.6-61.5,36.1V75.9H208c-72.7,0-132.2,59.5-132.2,132.2v153h120.2
			C173.5,349.2,158.1,325.7,158.1,298.5z"/>
		<linearGradient id="SVGID_1_" gradientUnits="userSpaceOnUse" x1="67.9023" y1="236.0011" x2="500.9492" y2="236.0011">
			<stop  offset="8.707932e-02" style="stop-color:#0B819A"/>
			<stop  offset="0.7008" style="stop-color:#23235B"/>
			<stop  offset="1" style="stop-color:#0F1236"/>
		</linearGradient>
		<path class="st0" d="M396.1,404.1c-1.9,0-3.9-0.7-5.4-2.1c-23.1-21.3-52.9-33-83.9-33H261c-3.7,0-6.9-2.5-7.7-6.1
			c-0.9-3.6,0.8-7.3,4.1-8.9c20.8-10.8,33.7-32.1,33.7-55.5c0-34.5-28.1-62.5-62.5-62.5c-34.5,0-62.5,28.1-62.5,62.5
			c0,23.4,12.9,44.6,33.7,55.5c3.3,1.7,4.9,5.4,4.1,8.9c-0.9,3.6-4.1,6.1-7.7,6.1H75.9c-4.4,0-8-3.6-8-8V208
			c0-77.3,62.9-140.1,140.1-140.1h153c4.4,0,8,3.6,8,8v89.7c14.3-13.4,33.4-21.2,53.6-21.2c43.3,0,78.4,35.2,78.4,78.4
			s-35.2,78.4-78.4,78.4c-20.1,0-39.2-7.8-53.6-21.2v26.7c0,31,11.7,60.8,33,83.9c2.9,3.1,2.8,8-0.2,11
			C400.2,403.3,398.2,404.1,396.1,404.1z M284.9,353h21.9c20.8,0,41.2,4.7,59.8,13.6c-8.9-18.6-13.6-38.9-13.6-59.8v-49.6
			c0-3.6,2.4-6.8,5.9-7.7c3.5-0.9,7.2,0.7,9,3.8c11.1,19.8,32,32.1,54.6,32.1c34.5,0,62.5-28.1,62.5-62.5s-28.1-62.5-62.5-62.5
			c-22.6,0-43.5,12.3-54.6,32.1c-1.8,3.2-5.5,4.7-9,3.8c-3.5-0.9-5.9-4.1-5.9-7.7V83.8H208c-33,0-64.2,13-87.7,36.5
			S83.8,175,83.8,208v145h88.4c-14-14.4-22.1-33.8-22.1-54.6c0-43.3,35.2-78.4,78.4-78.4c43.3,0,78.4,35.2,78.4,78.4
			C307,319.2,298.9,338.6,284.9,353z"/>
	</g>
	<g>
		<path class="st4" d="M641.9,501.5c0,38.9-31.6,70.5-70.5,70.5c-38.9,0-70.5-31.6-70.5-70.5c0-27.2,15.4-50.8,38-62.5h-45.8
			c-34.4,0-65.7-13.4-89.3-35.2c21.7,23.6,35.2,54.9,35.2,89.3v49.6c-12.1-21.5-35.1-36.1-61.5-36.1c-38.9,0-70.5,31.6-70.5,70.5
			c0,38.9,31.6,70.5,70.5,70.5c26.4,0,49.5-14.6,61.5-36.1v112.6h153c72.7,0,132.2-59.5,132.2-132.2V439H603.9
			C626.5,450.8,641.9,474.3,641.9,501.5z"/>
		<linearGradient id="SVGID_2_" gradientUnits="userSpaceOnUse" x1="299.0508" y1="563.9988" x2="732.0977" y2="563.9988">
			<stop  offset="8.707932e-02" style="stop-color:#0B819A"/>
			<stop  offset="0.7008" style="stop-color:#23235B"/>
			<stop  offset="1" style="stop-color:#0F1236"/>
		</linearGradient>
		<path class="st1" d="M592,732.1H439c-4.4,0-8-3.6-8-8v-89.7c-14.3,13.4-33.4,21.2-53.6,21.2c-43.3,0-78.4-35.2-78.4-78.4
			c0-43.3,35.2-78.4,78.4-78.4c20.1,0,39.2,7.8,53.6,21.2v-26.7c0-31-11.7-60.8-33-83.9c-2.9-3.1-2.8-8,0.2-11c3-3,7.9-3.1,11-0.2
			c23.1,21.3,52.9,33,83.9,33H539c3.7,0,6.9,2.5,7.7,6.1c0.9,3.6-0.8,7.3-4.1,8.9c-20.8,10.8-33.7,32.1-33.7,55.5
			c0,34.5,28.1,62.5,62.5,62.5c34.5,0,62.5-28.1,62.5-62.5c0-23.4-12.9-44.6-33.7-55.5c-3.3-1.7-4.9-5.4-4.1-8.9
			c0.9-3.6,4.1-6.1,7.7-6.1h120.2c4.4,0,8,3.6,8,8v153C732.1,669.2,669.2,732.1,592,732.1z M447,716.2h145c33,0,64.2-13,87.7-36.5
			c23.5-23.5,36.5-54.7,36.5-87.7V447h-88.4c14,14.4,22.1,33.8,22.1,54.6c0,43.3-35.2,78.4-78.4,78.4c-43.3,0-78.4-35.2-78.4-78.4
			c0-20.8,8.1-40.2,22.1-54.6h-21.9c-20.8,0-41.2-4.7-59.8-13.6c8.9,18.6,13.6,38.9,13.6,59.8v49.6c0,3.6-2.4,6.8-5.9,7.7
			c-3.5,0.9-7.2-0.7-9-3.8c-11.1-19.8-32-32.1-54.6-32.1c-34.5,0-62.5,28.1-62.5,62.5c0,34.5,28.1,62.5,62.5,62.5
			c22.6,0,43.5-12.3,54.6-32.1c1.8-3.2,5.5-4.7,9-3.8c3.5,0.9,5.9,4.1,5.9,7.7V716.2z"/>
	</g>
	<g>
		<path class="st4" d="M701.5,134.3c-4.8-7-10.2-13.6-16.2-19.6c-6-6-12.5-11.4-19.6-16.2c-7-4.8-14.5-8.9-22.4-12.2
			c-4-1.7-8-3.2-12.1-4.5c-12.4-3.9-25.6-6-39.2-6H361v112.6c12.1-21.5,35.1-36.1,61.5-36.1c38.9,0,70.5,31.6,70.5,70.5
			c0,38.9-31.6,70.5-70.5,70.5c-26.4,0-49.5-14.6-61.5-36.1v49.6c0,34.4,13.4,65.7,35.2,89.3c2.7,2.5,5.2,5,7.7,7.7
			c23.6,21.7,54.9,35.2,89.3,35.2H539c-22.6,11.7-38,35.3-38,62.5c0,38.9,31.6,70.5,70.5,70.5c38.9,0,70.5-31.6,70.5-70.5
			c0-27.2-15.4-50.8-38-62.5h120.2V208C724.1,180.8,715.8,155.4,701.5,134.3z"/>
		<linearGradient id="SVGID_3_" gradientUnits="userSpaceOnUse" x1="353.0332" y1="323.9442" x2="732.0977" y2="323.9442">
			<stop  offset="8.707932e-02" style="stop-color:#0B819A"/>
			<stop  offset="0.7008" style="stop-color:#23235B"/>
			<stop  offset="1" style="stop-color:#0F1236"/>
		</linearGradient>
		<path class="st2" d="M571.4,580c-43.3,0-78.4-35.2-78.4-78.4c0-20.8,8.1-40.2,22.1-54.6h-21.9c-35,0-68.6-13.2-94.7-37.3
			c-0.2-0.1-0.3-0.3-0.5-0.5c-2.3-2.5-4.8-4.9-7.3-7.3c-0.2-0.1-0.3-0.3-0.5-0.5c-24-26.1-37.3-59.7-37.3-94.7v-49.6
			c0-3.6,2.4-6.8,5.9-7.7c3.5-0.9,7.2,0.7,9,3.8c11.1,19.8,32,32.1,54.6,32.1c34.5,0,62.5-28.1,62.5-62.5s-28.1-62.5-62.5-62.5
			c-22.6,0-43.5,12.3-54.6,32.1c-1.8,3.2-5.5,4.7-9,3.8c-3.5-0.9-5.9-4.1-5.9-7.7V75.9c0-4.4,3.6-8,8-8h231
			c14.2,0,28.1,2.1,41.6,6.3c4.3,1.4,8.7,3,12.9,4.7c8.3,3.5,16.3,7.9,23.8,13c7.4,5,14.4,10.8,20.7,17.1
			c6.3,6.4,12.1,13.3,17.1,20.7l0,0c15.7,23.2,24,50.3,24,78.2v231c0,4.4-3.6,8-8,8h-96.4c14,14.4,22.1,33.8,22.1,54.6
			C649.9,544.8,614.7,580,571.4,580z M409.5,398.2c23.1,21.2,52.8,32.8,83.7,32.8H539c3.7,0,6.9,2.5,7.7,6.1
			c0.9,3.6-0.8,7.3-4.1,8.9c-20.8,10.8-33.7,32.1-33.7,55.5c0,34.5,28.1,62.5,62.5,62.5c34.5,0,62.5-28.1,62.5-62.5
			c0-23.4-12.9-44.6-33.7-55.5c-3.3-1.7-4.9-5.4-4.1-8.9c0.9-3.6,4.1-6.1,7.7-6.1h112.3V208c0-24.8-7.4-48.7-21.3-69.3l0,0
			c-4.5-6.6-9.6-12.8-15.2-18.4c-5.6-5.6-11.8-10.8-18.4-15.2c-6.6-4.5-13.7-8.4-21.1-11.5c-3.7-1.6-7.5-3-11.4-4.2
			c-11.9-3.7-24.3-5.6-36.8-5.6h-223v81.8c14.3-13.4,33.4-21.2,53.6-21.2c43.3,0,78.4,35.2,78.4,78.4s-35.2,78.4-78.4,78.4
			c-20.1,0-39.2-7.8-53.6-21.2v26.7c0,30.9,11.7,60.6,32.8,83.7C404.4,393,407,395.6,409.5,398.2z"/>
	</g>
	<g>
		<path class="st4" d="M377.5,647.7c-38.9,0-70.5-31.6-70.5-70.5c0-38.9,31.6-70.5,70.5-70.5c26.4,0,49.5,14.6,61.5,36.1v-49.6
			c0-34.4-13.4-65.7-35.2-89.3c-2.7-2.5-5.2-5-7.7-7.7c-23.6-21.7-54.9-35.2-89.3-35.2H261c22.6-11.7,38-35.3,38-62.5
			c0-38.9-31.6-70.5-70.5-70.5c-38.9,0-70.5,31.6-70.5,70.5c0,27.2,15.4,50.8,38,62.5H75.9v231c0,72.7,59.5,132.2,132.2,132.2h231
			V611.5C426.9,633.1,403.9,647.7,377.5,647.7z"/>
		<linearGradient id="SVGID_4_" gradientUnits="userSpaceOnUse" x1="67.9023" y1="476.0558" x2="446.9668" y2="476.0558">
			<stop  offset="8.707932e-02" style="stop-color:#0B819A"/>
			<stop  offset="0.7008" style="stop-color:#23235B"/>
			<stop  offset="1" style="stop-color:#0F1236"/>
		</linearGradient>
		<path class="st3" d="M439,732.1H208c-77.3,0-140.1-62.9-140.1-140.1V361c0-4.4,3.6-8,8-8h96.4c-14-14.4-22.1-33.8-22.1-54.6
			c0-43.3,35.2-78.4,78.4-78.4c43.3,0,78.4,35.2,78.4,78.4c0,20.8-8.1,40.2-22.1,54.6h21.9c35,0,68.6,13.2,94.7,37.3
			c0.2,0.1,0.3,0.3,0.5,0.5c2.3,2.5,4.7,4.9,7.3,7.3c0.2,0.1,0.3,0.3,0.5,0.5c24,26.1,37.3,59.7,37.3,94.7v49.6
			c0,3.6-2.4,6.8-5.9,7.7c-3.5,0.9-7.2-0.7-9-3.8c-11.1-19.8-32-32.1-54.6-32.1c-34.5,0-62.5,28.1-62.5,62.5
			c0,34.5,28.1,62.5,62.5,62.5c22.6,0,43.5-12.3,54.6-32.1c1.8-3.2,5.5-4.7,9-3.8c3.5,0.9,5.9,4.1,5.9,7.7v112.6
			C447,728.5,443.4,732.1,439,732.1z M83.8,368.9v223c0,33,13,64.2,36.5,87.7s54.7,36.5,87.7,36.5h223v-81.8
			c-14.3,13.4-33.4,21.2-53.6,21.2c-43.3,0-78.4-35.2-78.4-78.4c0-43.3,35.2-78.4,78.4-78.4c20.1,0,39.2,7.8,53.6,21.2v-26.7
			c0-30.9-11.7-60.6-32.8-83.7c-2.7-2.5-5.2-5.1-7.7-7.7c-23.1-21.2-52.8-32.8-83.7-32.8H261c-3.7,0-6.9-2.5-7.7-6.1
			c-0.9-3.6,0.8-7.3,4.1-8.9c20.8-10.8,33.7-32.1,33.7-55.5c0-34.5-28.1-62.5-62.5-62.5c-34.5,0-62.5,28.1-62.5,62.5
			c0,23.4,12.9,44.6,33.7,55.5c3.3,1.7,4.9,5.4,4.1,8.9c-0.9,3.6-4.1,6.1-7.7,6.1H83.8z"/>
	</g>
</g>
</svg>
