<?xml version="1.0" encoding="utf-8"?>
<!-- Generator: Adobe Illustrator 22.0.0, SVG Export Plug-In . SVG Version: 6.00 Build 0)  -->
<svg version="1.1" id="Layer_1" xmlns="http://www.w3.org/2000/svg" xmlns:xlink="http://www.w3.org/1999/xlink" x="0px" y="0px"
	 viewBox="0 0 800 800" style="enable-background:new 0 0 800 800;" xml:space="preserve">
<style type="text/css">
	.st0{fill:url(#SVGID_1_);}
	.st1{fill:url(#SVGID_2_);}
	.st2{fill:url(#SVGID_3_);}
	.st3{fill:url(#SVGID_4_);}
	.st4{fill:#FFFFFF;}
	.st5{fill:url(#SVGID_5_);}
	.st6{fill:url(#SVGID_6_);}
	.st7{fill:url(#SVGID_7_);}
	.st8{fill:url(#SVGID_8_);}
	.st9{fill:url(#SVGID_9_);}
	.st10{fill:url(#SVGID_10_);}
	.st11{fill:url(#SVGID_11_);}
	.st12{fill:url(#SVGID_12_);}
	.st13{fill:url(#SVGID_13_);}
	.st14{fill:none;}
	.st15{fill:url(#SVGID_14_);}
	.st16{fill:url(#SVGID_15_);}
	.st17{fill:url(#SVGID_16_);}
	.st18{fill:url(#SVGID_17_);}
	.st19{fill:url(#SVGID_18_);}
	.st20{fill:url(#SVGID_19_);}
	.st21{fill:url(#SVGID_20_);}
	.st22{fill:url(#SVGID_21_);}
	.st23{fill:url(#SVGID_22_);}
	.st24{fill:url(#SVGID_23_);}
	.st25{fill:url(#SVGID_24_);}
	.st26{fill:url(#SVGID_25_);}
	.st27{fill:url(#SVGID_26_);}
	.st28{fill:url(#SVGID_27_);}
	.st29{fill:url(#SVGID_28_);}
	.st30{fill:url(#SVGID_29_);}
	.st31{fill:#083D5D;}
	.st32{fill:url(#SVGID_30_);}
	.st33{fill:url(#SVGID_31_);}
	.st34{fill:url(#SVGID_32_);}
	.st35{fill:url(#SVGID_33_);}
	.st36{fill:#231F20;}
	.st37{fill:url(#SVGID_34_);}
	.st38{fill:url(#SVGID_35_);}
	.st39{fill:url(#SVGID_36_);}
	.st40{fill:url(#SVGID_37_);}
	.st41{fill:url(#SVGID_38_);}
</style>
<g>
	
		<linearGradient id="SVGID_1_" gradientUnits="userSpaceOnUse" x1="1319.2889" y1="610.888" x2="1983.4838" y2="610.888" gradientTransform="matrix(0 -1 1 0 -210.888 2051.3862)">
		<stop  offset="0.3585" style="stop-color:#84ABB3"/>
		<stop  offset="0.8835" style="stop-color:#CDE2E7"/>
	</linearGradient>
	<path class="st0" d="M592,732.1H208c-77.3,0-140.1-62.9-140.1-140.1V208c0-77.3,62.9-140.1,140.1-140.1H592
		c77.3,0,140.1,62.9,140.1,140.1V592C732.1,669.2,669.2,732.1,592,732.1z M208,83.8c-33,0-64.2,13-87.7,36.5S83.8,175,83.8,208V592
		c0,33,13,64.2,36.5,87.7s54.7,36.5,87.7,36.5H592c33,0,64.2-13,87.7-36.5s36.5-54.7,36.5-87.7V208c0-33-13-64.2-36.5-87.7
		S625,83.8,592,83.8H208z"/>
	<g>
		<path class="st4" d="M352.2,593.1c-15.4,0-30.7-5.9-42.4-17.6L139.2,405c-23.4-23.4-23.4-61.4,0-84.8c23.4-23.4,61.4-23.4,84.8,0
			l128.1,128.1L576,224.5c23.4-23.4,61.4-23.4,84.8,0c23.4,23.4,23.4,61.4,0,84.8L394.6,575.5C382.9,587.2,367.5,593.1,352.2,593.1z
			"/>
		<linearGradient id="SVGID_2_" gradientUnits="userSpaceOnUse" x1="113.7076" y1="400.0156" x2="686.3242" y2="400.0156">
			<stop  offset="8.707932e-02" style="stop-color:#0B819A"/>
			<stop  offset="0.7008" style="stop-color:#23235B"/>
			<stop  offset="1" style="stop-color:#0F1236"/>
		</linearGradient>
		<path class="st1" d="M352.2,601c-18.1,0-35.2-7.1-48-19.9L133.6,410.6c-26.5-26.5-26.5-69.6,0-96.1c26.5-26.5,69.6-26.5,96.1,0
			L352.2,437l218.2-218.2c26.5-26.5,69.6-26.5,96.1,0c12.8,12.8,19.9,29.9,19.9,48s-7.1,35.2-19.9,48L400.2,581.1
			C387.4,594,370.3,601,352.2,601z M181.6,310.5c-13.3,0-26.6,5.1-36.8,15.2c-9.8,9.8-15.2,22.9-15.2,36.8s5.4,27,15.2,36.8
			l170.6,170.6c9.8,9.8,22.9,15.2,36.8,15.2c13.9,0,27-5.4,36.8-15.2l266.2-266.2c9.8-9.8,15.2-22.9,15.2-36.8s-5.4-27-15.2-36.8
			c-20.3-20.3-53.3-20.3-73.6,0L357.8,453.9c-1.5,1.5-3.5,2.3-5.6,2.3s-4.1-0.8-5.6-2.3L218.4,325.7
			C208.3,315.6,194.9,310.5,181.6,310.5z"/>
	</g>
</g>
</svg>
