<?xml version="1.0" encoding="utf-8"?>
<!-- Generator: Adobe Illustrator 22.0.0, SVG Export Plug-In . SVG Version: 6.00 Build 0)  -->
<svg version="1.1" id="Layer_1" xmlns="http://www.w3.org/2000/svg" xmlns:xlink="http://www.w3.org/1999/xlink" x="0px" y="0px"
	 viewBox="0 0 800 800" style="enable-background:new 0 0 800 800;" xml:space="preserve">
<style type="text/css">
	.st0{fill:url(#SVGID_1_);}
	.st1{fill:url(#SVGID_2_);}
	.st2{fill:url(#SVGID_3_);}
	.st3{fill:url(#SVGID_4_);}
	.st4{fill:#FFFFFF;}
	.st5{fill:url(#SVGID_5_);}
	.st6{fill:url(#SVGID_6_);}
	.st7{fill:url(#SVGID_7_);}
	.st8{fill:url(#SVGID_8_);}
	.st9{fill:url(#SVGID_9_);}
	.st10{fill:url(#SVGID_10_);}
	.st11{fill:url(#SVGID_11_);}
	.st12{fill:url(#SVGID_12_);}
	.st13{fill:url(#SVGID_13_);}
	.st14{fill:none;}
	.st15{fill:url(#SVGID_14_);}
	.st16{fill:url(#SVGID_15_);}
	.st17{fill:url(#SVGID_16_);}
	.st18{fill:url(#SVGID_17_);}
	.st19{fill:url(#SVGID_18_);}
	.st20{fill:url(#SVGID_19_);}
	.st21{fill:url(#SVGID_20_);}
	.st22{fill:url(#SVGID_21_);}
	.st23{fill:url(#SVGID_22_);}
	.st24{fill:url(#SVGID_23_);}
	.st25{fill:url(#SVGID_24_);}
	.st26{fill:url(#SVGID_25_);}
	.st27{fill:url(#SVGID_26_);}
	.st28{fill:url(#SVGID_27_);}
	.st29{fill:url(#SVGID_28_);}
	.st30{fill:url(#SVGID_29_);}
	.st31{fill:#083D5D;}
	.st32{fill:url(#SVGID_30_);}
	.st33{fill:url(#SVGID_31_);}
	.st34{fill:url(#SVGID_32_);}
	.st35{fill:url(#SVGID_33_);}
	.st36{fill:#231F20;}
	.st37{fill:url(#SVGID_34_);}
	.st38{fill:url(#SVGID_35_);}
	.st39{fill:url(#SVGID_36_);}
	.st40{fill:url(#SVGID_37_);}
	.st41{fill:url(#SVGID_38_);}
</style>
<g>
	<linearGradient id="SVGID_1_" gradientUnits="userSpaceOnUse" x1="62.9596" y1="432.6717" x2="340.5691" y2="432.6717">
		<stop  offset="0" style="stop-color:#0F1236"/>
		<stop  offset="0.2992" style="stop-color:#23235B"/>
		<stop  offset="0.9129" style="stop-color:#0B819A"/>
	</linearGradient>
	<circle class="st0" cx="368.6" cy="432.7" r="197.4"/>
	<g>
		<circle class="st4" cx="377.8" cy="421.7" r="182.5"/>
		<linearGradient id="SVGID_2_" gradientUnits="userSpaceOnUse" x1="185.2998" y1="421.744" x2="570.2139" y2="421.744">
			<stop  offset="0" style="stop-color:#0F1236"/>
			<stop  offset="0.2992" style="stop-color:#23235B"/>
			<stop  offset="0.9129" style="stop-color:#0B819A"/>
		</linearGradient>
		<path class="st1" d="M377.8,614.2c-106.1,0-192.5-86.3-192.5-192.5s86.3-192.5,192.5-192.5s192.5,86.3,192.5,192.5
			S483.9,614.2,377.8,614.2z M377.8,249.3c-95.1,0-172.5,77.4-172.5,172.5s77.4,172.5,172.5,172.5s172.5-77.4,172.5-172.5
			S472.9,249.3,377.8,249.3z"/>
	</g>
	<g>
		<circle class="st4" cx="381.8" cy="416.9" r="108.3"/>
		<linearGradient id="SVGID_3_" gradientUnits="userSpaceOnUse" x1="263.4824" y1="416.8642" x2="500.1812" y2="416.8642">
			<stop  offset="0" style="stop-color:#0F1236"/>
			<stop  offset="0.2992" style="stop-color:#23235B"/>
			<stop  offset="0.9129" style="stop-color:#0B819A"/>
		</linearGradient>
		<path class="st2" d="M381.8,535.2c-65.3,0-118.3-53.1-118.3-118.3s53.1-118.3,118.3-118.3c65.3,0,118.3,53.1,118.3,118.3
			S447.1,535.2,381.8,535.2z M381.8,318.5c-54.2,0-98.3,44.1-98.3,98.3s44.1,98.3,98.3,98.3s98.3-44.1,98.3-98.3
			S436.1,318.5,381.8,318.5z"/>
	</g>
	<linearGradient id="SVGID_4_" gradientUnits="userSpaceOnUse" x1="339.5836" y1="416.8642" x2="424.0797" y2="416.8642">
		<stop  offset="0" style="stop-color:#0F1236"/>
		<stop  offset="0.2992" style="stop-color:#23235B"/>
		<stop  offset="0.9129" style="stop-color:#0B819A"/>
	</linearGradient>
	<circle class="st3" cx="381.8" cy="416.9" r="42.2"/>
	<g>
		<g>
			<g>
				<polygon class="st4" points="572,226.6 572,169.9 508.5,233.5 500.3,241.7 500.3,242.3 500.3,298.4 556.4,298.4 557,298.4 
					565.2,290.2 628.8,226.6 				"/>
				<path class="st36" d="M557,308.4h-56.7c-5.5,0-10-4.5-10-10v-56.7c0-2.7,1.1-5.2,2.9-7.1l71.8-71.8c2.9-2.9,7.2-3.7,10.9-2.2
					c3.7,1.5,6.2,5.2,6.2,9.2v46.7h46.7c4,0,7.7,2.4,9.2,6.2c1.5,3.7,0.7,8-2.2,10.9l-71.8,71.8C562.2,307.4,559.6,308.4,557,308.4z
					 M510.3,288.4h42.6l51.8-51.8H572c-5.5,0-10-4.5-10-10v-32.6l-51.8,51.8V288.4z"/>
			</g>
		</g>
		<path class="st36" d="M383,425.7c-2.6,0-5.1-1-7.1-2.9c-3.9-3.9-3.9-10.2,0-14.1l183.3-183.3c3.9-3.9,10.2-3.9,14.1,0
			c3.9,3.9,3.9,10.2,0,14.1L390,422.8C388.1,424.7,385.5,425.7,383,425.7z"/>
	</g>
</g>
<linearGradient id="SVGID_5_" gradientUnits="userSpaceOnUse" x1="-1172.2654" y1="-1660.5062" x2="-508.0701" y2="-1660.5062" gradientTransform="matrix(0 -1 1 0 2060.5061 -440.1678)">
	<stop  offset="0.3585" style="stop-color:#84ABB3"/>
	<stop  offset="0.8835" style="stop-color:#CDE2E7"/>
</linearGradient>
<path class="st5" d="M592,732.1H208c-77.3,0-140.1-62.9-140.1-140.1V208c0-77.3,62.9-140.1,140.1-140.1H592
	c77.3,0,140.1,62.9,140.1,140.1V592C732.1,669.2,669.2,732.1,592,732.1z M208,83.8c-33,0-64.2,13-87.7,36.5S83.8,175,83.8,208V592
	c0,33,13,64.2,36.5,87.7c23.5,23.5,54.7,36.5,87.7,36.5H592c33,0,64.2-13,87.7-36.5c23.5-23.5,36.5-54.7,36.5-87.7V208
	c0-33-13-64.2-36.5-87.7S625,83.8,592,83.8H208z"/>
</svg>
