<?xml version="1.0" encoding="utf-8"?>
<!-- Generator: Adobe Illustrator 22.0.0, SVG Export Plug-In . SVG Version: 6.00 Build 0)  -->
<svg version="1.1" id="Layer_1" xmlns="http://www.w3.org/2000/svg" xmlns:xlink="http://www.w3.org/1999/xlink" x="0px" y="0px"
	 viewBox="0 0 800 800" style="enable-background:new 0 0 800 800;" xml:space="preserve">
<style type="text/css">
	.st0{fill:url(#SVGID_1_);}
	.st1{fill:url(#SVGID_2_);}
	.st2{fill:url(#SVGID_3_);}
	.st3{fill:url(#SVGID_4_);}
	.st4{fill:#FFFFFF;}
	.st5{fill:url(#SVGID_5_);}
	.st6{fill:url(#SVGID_6_);}
	.st7{fill:url(#SVGID_7_);}
	.st8{fill:url(#SVGID_8_);}
	.st9{fill:url(#SVGID_9_);}
	.st10{fill:url(#SVGID_10_);}
	.st11{fill:url(#SVGID_11_);}
	.st12{fill:url(#SVGID_12_);}
	.st13{fill:url(#SVGID_13_);}
	.st14{fill:none;}
	.st15{fill:url(#SVGID_14_);}
	.st16{fill:url(#SVGID_15_);}
	.st17{fill:url(#SVGID_16_);}
	.st18{fill:url(#SVGID_17_);}
	.st19{fill:url(#SVGID_18_);}
	.st20{fill:url(#SVGID_19_);}
	.st21{fill:url(#SVGID_20_);}
	.st22{fill:url(#SVGID_21_);}
	.st23{fill:url(#SVGID_22_);}
	.st24{fill:url(#SVGID_23_);}
	.st25{fill:url(#SVGID_24_);}
	.st26{fill:url(#SVGID_25_);}
	.st27{fill:url(#SVGID_26_);}
	.st28{fill:url(#SVGID_27_);}
	.st29{fill:url(#SVGID_28_);}
	.st30{fill:url(#SVGID_29_);}
	.st31{fill:#083D5D;}
	.st32{fill:url(#SVGID_30_);}
	.st33{fill:url(#SVGID_31_);}
	.st34{fill:url(#SVGID_32_);}
	.st35{fill:url(#SVGID_33_);}
	.st36{fill:#231F20;}
	.st37{fill:url(#SVGID_34_);}
	.st38{fill:url(#SVGID_35_);}
	.st39{fill:url(#SVGID_36_);}
	.st40{fill:url(#SVGID_37_);}
	.st41{fill:url(#SVGID_38_);}
</style>
<g>
	<g>
		<linearGradient id="SVGID_1_" gradientUnits="userSpaceOnUse" x1="181.7988" y1="292.8297" x2="618.2012" y2="292.8297">
			<stop  offset="8.707932e-02" style="stop-color:#0B819A"/>
			<stop  offset="0.7008" style="stop-color:#23235B"/>
			<stop  offset="1" style="stop-color:#0F1236"/>
		</linearGradient>
		<path class="st0" d="M294.9,405.9c-2.1,0-4.1-0.8-5.6-2.3L184.1,298.5c-3.1-3.1-3.1-8.1,0-11.3l105.1-105.1c2.3-2.3,5.7-3,8.7-1.7
			c3,1.2,4.9,4.1,4.9,7.4V214h236.5c43.5,0,78.8,35.4,78.8,78.8c0,43.5-35.4,78.8-78.8,78.8H302.9V398c0,3.2-1.9,6.1-4.9,7.4
			C297,405.7,295.9,405.9,294.9,405.9z M201,292.8l85.9,85.9v-15.5c0-2.3,1-4.4,2.7-5.9c1.7-1.5,3.9-2.2,6.2-2
			c2.5,0.3,4.8,0.4,6.9,0.4h236.7c34.7,0,62.9-28.2,62.9-62.9c0-34.7-28.2-62.9-62.9-62.9H302.7c-2.2,0-4.5,0.1-6.9,0.4
			c-2.2,0.3-4.5-0.5-6.2-2c-1.7-1.5-2.7-3.7-2.7-5.9v-15.5L201,292.8z"/>
		<linearGradient id="SVGID_2_" gradientUnits="userSpaceOnUse" x1="181.7988" y1="507.1707" x2="618.2012" y2="507.1707">
			<stop  offset="0" style="stop-color:#0F1236"/>
			<stop  offset="0.2992" style="stop-color:#23235B"/>
			<stop  offset="0.9129" style="stop-color:#0B819A"/>
		</linearGradient>
		<path class="st1" d="M505.1,620.3c-1,0-2.1-0.2-3-0.6c-3-1.2-4.9-4.1-4.9-7.4V586H260.6c-43.5,0-78.8-35.4-78.8-78.8
			c0-43.5,35.4-78.8,78.8-78.8h236.5V402c0-3.2,1.9-6.1,4.9-7.4c3-1.2,6.4-0.5,8.7,1.7l105.1,105.1c3.1,3.1,3.1,8.1,0,11.3
			L510.7,617.9C509.2,619.5,507.2,620.3,505.1,620.3z M505.1,569.6c1.9,0,3.8,0.7,5.3,2c1.7,1.5,2.6,3.7,2.6,5.9v15.5l85.9-85.9
			l-85.9-85.9v15.5c0,2.3-1,4.4-2.6,5.9c-1.7,1.5-3.9,2.2-6.2,2c-2.5-0.3-4.8-0.4-6.9-0.4H260.6c-34.7,0-62.9,28.2-62.9,62.9
			s28.2,62.9,62.9,62.9h236.7c2.2,0,4.4-0.1,6.9-0.4C504.5,569.6,504.8,569.6,505.1,569.6z"/>
	</g>
	
		<linearGradient id="SVGID_3_" gradientUnits="userSpaceOnUse" x1="254.5253" y1="-475.3618" x2="918.7196" y2="-475.3618" gradientTransform="matrix(0 -1 1 0 875.3618 986.6224)">
		<stop  offset="0.3585" style="stop-color:#84ABB3"/>
		<stop  offset="0.8835" style="stop-color:#CDE2E7"/>
	</linearGradient>
	<path class="st2" d="M592,732.1H208c-77.3,0-140.1-62.9-140.1-140.1V208c0-77.3,62.9-140.1,140.1-140.1H592
		c77.3,0,140.1,62.9,140.1,140.1V592C732.1,669.2,669.2,732.1,592,732.1z M208,83.8c-33,0-64.2,13-87.7,36.5S83.8,175,83.8,208V592
		c0,33,13,64.2,36.5,87.7c23.5,23.5,54.7,36.5,87.7,36.5H592c33,0,64.2-13,87.7-36.5c23.5-23.5,36.5-54.7,36.5-87.7V208
		c0-33-13-64.2-36.5-87.7S625,83.8,592,83.8H208z"/>
</g>
</svg>
