<?xml version="1.0" encoding="utf-8"?>
<!-- Generator: Adobe Illustrator 22.0.0, SVG Export Plug-In . SVG Version: 6.00 Build 0)  -->
<svg version="1.1" id="Layer_1" xmlns="http://www.w3.org/2000/svg" xmlns:xlink="http://www.w3.org/1999/xlink" x="0px" y="0px"
	 viewBox="0 0 800 800" style="enable-background:new 0 0 800 800;" xml:space="preserve">
<style type="text/css">
	.st0{fill:url(#SVGID_1_);}
	.st1{fill:url(#SVGID_2_);}
	.st2{fill:url(#SVGID_3_);}
	.st3{fill:url(#SVGID_4_);}
	.st4{fill:#FFFFFF;}
	.st5{fill:url(#SVGID_5_);}
	.st6{fill:url(#SVGID_6_);}
	.st7{fill:url(#SVGID_7_);}
	.st8{fill:url(#SVGID_8_);}
	.st9{fill:url(#SVGID_9_);}
	.st10{fill:url(#SVGID_10_);}
	.st11{fill:url(#SVGID_11_);}
	.st12{fill:url(#SVGID_12_);}
	.st13{fill:url(#SVGID_13_);}
	.st14{fill:none;}
	.st15{fill:url(#SVGID_14_);}
	.st16{fill:url(#SVGID_15_);}
	.st17{fill:url(#SVGID_16_);}
	.st18{fill:url(#SVGID_17_);}
	.st19{fill:url(#SVGID_18_);}
	.st20{fill:url(#SVGID_19_);}
	.st21{fill:url(#SVGID_20_);}
	.st22{fill:url(#SVGID_21_);}
	.st23{fill:url(#SVGID_22_);}
	.st24{fill:url(#SVGID_23_);}
	.st25{fill:url(#SVGID_24_);}
	.st26{fill:url(#SVGID_25_);}
	.st27{fill:url(#SVGID_26_);}
	.st28{fill:url(#SVGID_27_);}
	.st29{fill:url(#SVGID_28_);}
	.st30{fill:url(#SVGID_29_);}
	.st31{fill:#083D5D;}
	.st32{fill:url(#SVGID_30_);}
	.st33{fill:url(#SVGID_31_);}
	.st34{fill:url(#SVGID_32_);}
	.st35{fill:url(#SVGID_33_);}
	.st36{fill:#231F20;}
	.st37{fill:url(#SVGID_34_);}
	.st38{fill:url(#SVGID_35_);}
	.st39{fill:url(#SVGID_36_);}
	.st40{fill:url(#SVGID_37_);}
	.st41{fill:url(#SVGID_38_);}
</style>
<g>
	
		<linearGradient id="SVGID_1_" gradientUnits="userSpaceOnUse" x1="-736.2977" y1="515.4611" x2="-72.1033" y2="515.4611" gradientTransform="matrix(0 -1 1 0 -115.4611 -4.2006)">
		<stop  offset="0.3585" style="stop-color:#84ABB3"/>
		<stop  offset="0.8835" style="stop-color:#CDE2E7"/>
	</linearGradient>
	<path class="st0" d="M592,732.1H208c-77.3,0-140.1-62.9-140.1-140.1V208c0-77.3,62.9-140.1,140.1-140.1H592
		c77.3,0,140.1,62.9,140.1,140.1V592C732.1,669.2,669.2,732.1,592,732.1z M208,83.8c-33,0-64.2,13-87.7,36.5S83.8,175,83.8,208V592
		c0,33,13,64.2,36.5,87.7c23.5,23.5,54.7,36.5,87.7,36.5H592c33,0,64.2-13,87.7-36.5c23.5-23.5,36.5-54.7,36.5-87.7V208
		c0-33-13-64.2-36.5-87.7S625,83.8,592,83.8H208z"/>
	<g>
		<linearGradient id="SVGID_2_" gradientUnits="userSpaceOnUse" x1="278.0488" y1="399.9999" x2="521.9512" y2="399.9999">
			<stop  offset="0" style="stop-color:#0F1236"/>
			<stop  offset="0.2992" style="stop-color:#23235B"/>
			<stop  offset="0.9129" style="stop-color:#0B819A"/>
		</linearGradient>
		<path class="st1" d="M400,522c-67.2,0-122-54.7-122-122c0-67.2,54.7-122,122-122s122,54.7,122,122C522,467.2,467.2,522,400,522z
			 M400,294c-58.5,0-106,47.6-106,106s47.6,106,106,106s106-47.6,106-106S458.5,294,400,294z"/>
		<circle class="st36" cx="400" cy="400" r="65.3"/>
		<circle class="st4" cx="453.2" cy="374.6" r="25.4"/>
		<path class="st36" d="M400,528.9c-44.9,0-89-11.9-127.6-34.4c-37.4-21.8-68.8-53.1-91-90.4c-1.5-2.5-1.5-5.6,0-8.1
			c22.1-37.3,53.6-68.6,91-90.4C311,283,355.1,271.1,400,271.1c44.9,0,89,11.9,127.6,34.4c37.4,21.8,68.8,53.1,91,90.4
			c1.5,2.5,1.5,5.6,0,8.1c-22.1,37.3-53.6,68.6-91,90.4C489,517,444.9,528.9,400,528.9z M197.6,400c20.6,33.2,49.2,61.1,82.8,80.7
			C316.6,501.8,357.9,513,400,513s83.4-11.2,119.6-32.3c33.7-19.7,62.2-47.5,82.8-80.7c-20.6-33.2-49.2-61.1-82.8-80.7
			C483.4,298.2,442.1,287,400,287c-42.1,0-83.4,11.2-119.6,32.3C246.7,338.9,218.2,366.8,197.6,400z"/>
	</g>
</g>
</svg>
