<?xml version="1.0" encoding="utf-8"?>
<!-- Generator: Adobe Illustrator 22.0.0, SVG Export Plug-In . SVG Version: 6.00 Build 0)  -->
<svg version="1.1" id="Layer_1" xmlns="http://www.w3.org/2000/svg" xmlns:xlink="http://www.w3.org/1999/xlink" x="0px" y="0px"
	 viewBox="0 0 800 800" style="enable-background:new 0 0 800 800;" xml:space="preserve">
<style type="text/css">
	.st0{fill:url(#SVGID_1_);}
	.st1{fill:url(#SVGID_2_);}
	.st2{fill:url(#SVGID_3_);}
	.st3{fill:url(#SVGID_4_);}
	.st4{fill:#FFFFFF;}
	.st5{fill:url(#SVGID_5_);}
	.st6{fill:url(#SVGID_6_);}
	.st7{fill:url(#SVGID_7_);}
	.st8{fill:url(#SVGID_8_);}
	.st9{fill:url(#SVGID_9_);}
	.st10{fill:url(#SVGID_10_);}
	.st11{fill:url(#SVGID_11_);}
	.st12{fill:url(#SVGID_12_);}
	.st13{fill:url(#SVGID_13_);}
	.st14{fill:none;}
	.st15{fill:url(#SVGID_14_);}
	.st16{fill:url(#SVGID_15_);}
	.st17{fill:url(#SVGID_16_);}
	.st18{fill:url(#SVGID_17_);}
	.st19{fill:url(#SVGID_18_);}
	.st20{fill:url(#SVGID_19_);}
	.st21{fill:url(#SVGID_20_);}
	.st22{fill:url(#SVGID_21_);}
	.st23{fill:url(#SVGID_22_);}
	.st24{fill:url(#SVGID_23_);}
	.st25{fill:url(#SVGID_24_);}
	.st26{fill:url(#SVGID_25_);}
	.st27{fill:url(#SVGID_26_);}
	.st28{fill:url(#SVGID_27_);}
	.st29{fill:url(#SVGID_28_);}
	.st30{fill:url(#SVGID_29_);}
	.st31{fill:#083D5D;}
	.st32{fill:url(#SVGID_30_);}
	.st33{fill:url(#SVGID_31_);}
	.st34{fill:url(#SVGID_32_);}
	.st35{fill:url(#SVGID_33_);}
	.st36{fill:#231F20;}
	.st37{fill:url(#SVGID_34_);}
	.st38{fill:url(#SVGID_35_);}
	.st39{fill:url(#SVGID_36_);}
	.st40{fill:url(#SVGID_37_);}
	.st41{fill:url(#SVGID_38_);}
</style>
<g>
	
		<linearGradient id="SVGID_1_" gradientUnits="userSpaceOnUse" x1="2079.209" y1="-149.0321" x2="2743.4038" y2="-149.0321" gradientTransform="matrix(0 -1 1 0 549.032 2811.3064)">
		<stop  offset="0.3585" style="stop-color:#84ABB3"/>
		<stop  offset="0.8835" style="stop-color:#CDE2E7"/>
	</linearGradient>
	<path class="st0" d="M592,732.1H208c-77.3,0-140.1-62.9-140.1-140.1V208c0-77.3,62.9-140.1,140.1-140.1H592
		c77.3,0,140.1,62.9,140.1,140.1V592C732.1,669.2,669.2,732.1,592,732.1z M208,83.8c-33,0-64.2,13-87.7,36.5S83.8,175,83.8,208V592
		c0,33,13,64.2,36.5,87.7s54.7,36.5,87.7,36.5H592c33,0,64.2-13,87.7-36.5s36.5-54.7,36.5-87.7V208c0-33-13-64.2-36.5-87.7
		S625,83.8,592,83.8H208z"/>
	<g>
		<g>
			<path class="st4" d="M173.8,466.2l-1.6,161.7l161.7-1.6l6.6-6.6l254.5-254.5c44-44,44-116,0-160l0,0c-44-44-116-44-160,0
				L183.3,456.7L173.8,466.2z"/>
			<linearGradient id="SVGID_2_" gradientUnits="userSpaceOnUse" x1="164.1651" y1="399.9999" x2="635.915" y2="399.9999">
				<stop  offset="0" style="stop-color:#0F1236"/>
				<stop  offset="0.2992" style="stop-color:#23235B"/>
				<stop  offset="0.9129" style="stop-color:#0B819A"/>
			</linearGradient>
			<path class="st1" d="M172.1,635.8c-2.1,0-4.1-0.8-5.6-2.3c-1.5-1.5-2.4-3.6-2.3-5.7l1.6-161.7c0-2.1,0.9-4.1,2.3-5.5l261.1-261.1
				c22.8-22.8,53.2-35.3,85.6-35.3s62.8,12.5,85.6,35.3c47.2,47.2,47.2,124.1,0,171.3L339.4,631.9c-1.5,1.5-3.5,2.3-5.5,2.3
				L172.1,635.8C172.2,635.8,172.1,635.8,172.1,635.8z M181.7,469.5l-1.5,150.3l150.3-1.5l258.8-258.8c41-41,41-107.8,0-148.8
				c-19.8-19.8-46.2-30.7-74.4-30.7c-28.2,0-54.6,10.9-74.4,30.7L181.7,469.5z"/>
		</g>
		<g>
			<path class="st4" d="M173.7,467.2c39.8,2.9,78.7,19.6,109.1,50c30.4,30.4,47.1,69.4,50,109.1"/>
			<linearGradient id="SVGID_3_" gradientUnits="userSpaceOnUse" x1="165.7412" y1="546.7473" x2="340.7651" y2="546.7473">
				<stop  offset="0" style="stop-color:#0F1236"/>
				<stop  offset="0.2992" style="stop-color:#23235B"/>
				<stop  offset="0.9129" style="stop-color:#0B819A"/>
			</linearGradient>
			<path class="st2" d="M332.8,634.3c-4.1,0-7.6-3.2-7.9-7.4c-2.9-39.3-19.8-76.2-47.7-104.1c-27.9-27.9-64.8-44.8-104.1-47.7
				c-4.4-0.3-7.7-4.1-7.4-8.5s4.1-7.7,8.5-7.4c43.1,3.1,83.6,21.7,114.2,52.3c30.6,30.6,49.1,71.1,52.3,114.2c0.3,4.4-3,8.2-7.4,8.5
				C333.2,634.3,333,634.3,332.8,634.3z"/>
		</g>
	</g>
</g>
</svg>
