<?xml version="1.0" encoding="utf-8"?>
<!-- Generator: Adobe Illustrator 22.0.0, SVG Export Plug-In . SVG Version: 6.00 Build 0)  -->
<svg version="1.1" id="Layer_1" xmlns="http://www.w3.org/2000/svg" xmlns:xlink="http://www.w3.org/1999/xlink" x="0px" y="0px"
	 viewBox="0 0 800 800" style="enable-background:new 0 0 800 800;" xml:space="preserve">
<style type="text/css">
	.st0{fill:url(#SVGID_1_);}
	.st1{fill:url(#SVGID_2_);}
	.st2{fill:url(#SVGID_3_);}
	.st3{fill:url(#SVGID_4_);}
	.st4{fill:#FFFFFF;}
	.st5{fill:url(#SVGID_5_);}
	.st6{fill:url(#SVGID_6_);}
	.st7{fill:url(#SVGID_7_);}
	.st8{fill:url(#SVGID_8_);}
	.st9{fill:url(#SVGID_9_);}
	.st10{fill:url(#SVGID_10_);}
	.st11{fill:url(#SVGID_11_);}
	.st12{fill:url(#SVGID_12_);}
	.st13{fill:url(#SVGID_13_);}
	.st14{fill:none;}
	.st15{fill:url(#SVGID_14_);}
	.st16{fill:url(#SVGID_15_);}
	.st17{fill:url(#SVGID_16_);}
	.st18{fill:url(#SVGID_17_);}
	.st19{fill:url(#SVGID_18_);}
	.st20{fill:url(#SVGID_19_);}
	.st21{fill:url(#SVGID_20_);}
	.st22{fill:url(#SVGID_21_);}
	.st23{fill:url(#SVGID_22_);}
	.st24{fill:url(#SVGID_23_);}
	.st25{fill:url(#SVGID_24_);}
	.st26{fill:url(#SVGID_25_);}
	.st27{fill:url(#SVGID_26_);}
	.st28{fill:url(#SVGID_27_);}
	.st29{fill:url(#SVGID_28_);}
	.st30{fill:url(#SVGID_29_);}
	.st31{fill:#083D5D;}
	.st32{fill:url(#SVGID_30_);}
	.st33{fill:url(#SVGID_31_);}
	.st34{fill:url(#SVGID_32_);}
	.st35{fill:url(#SVGID_33_);}
	.st36{fill:#231F20;}
	.st37{fill:url(#SVGID_34_);}
	.st38{fill:url(#SVGID_35_);}
	.st39{fill:url(#SVGID_36_);}
	.st40{fill:url(#SVGID_37_);}
	.st41{fill:url(#SVGID_38_);}
</style>
<g>
	
		<linearGradient id="SVGID_1_" gradientUnits="userSpaceOnUse" x1="-976.5136" y1="-2139.8831" x2="-312.3183" y2="-2139.8831" gradientTransform="matrix(0 -1 1 0 2539.8831 -244.416)">
		<stop  offset="0.3585" style="stop-color:#84ABB3"/>
		<stop  offset="0.8835" style="stop-color:#CDE2E7"/>
	</linearGradient>
	<path class="st0" d="M592,732.1H208c-77.3,0-140.1-62.9-140.1-140.1V208c0-77.3,62.9-140.1,140.1-140.1H592
		c77.3,0,140.1,62.9,140.1,140.1V592C732.1,669.2,669.2,732.1,592,732.1z M208,83.8c-33,0-64.2,13-87.7,36.5S83.8,175,83.8,208V592
		c0,33,13,64.2,36.5,87.7c23.5,23.5,54.7,36.5,87.7,36.5H592c33,0,64.2-13,87.7-36.5c23.5-23.5,36.5-54.7,36.5-87.7V208
		c0-33-13-64.2-36.5-87.7S625,83.8,592,83.8H208z"/>
	<g>
		<linearGradient id="SVGID_2_" gradientUnits="userSpaceOnUse" x1="166.2668" y1="408.901" x2="643.0812" y2="408.901">
			<stop  offset="0" style="stop-color:#0F1236"/>
			<stop  offset="0.2992" style="stop-color:#23235B"/>
			<stop  offset="0.9129" style="stop-color:#0B819A"/>
		</linearGradient>
		<path class="st1" d="M641.8,454c-0.7-4.8-1.8-9.8-3.1-14.7c-1.4-4.9-3-9.8-5-14.7c-2.8-6.9-6-13.3-9.4-19.2l-81.7-155.5
			c-2.1-3.9-4.5-7.6-7-11c-2.5-3.4-5.2-6.7-8.1-9.6c-2.9-3-6-5.7-9.3-8.3c-3.2-2.3-6.5-4.4-10-6.2c-3.5-1.8-7.1-3.5-10.8-4.8
			c-3.7-1.4-7.7-2.5-11.7-3.4c-4-0.9-8.2-1.6-12.6-2c-1.1-0.1-2.3-0.1-3.5-0.1c-2-0.7-4.1-1.3-6.2-1.8c-0.7-0.5-1.5-1-2.3-1.5
			c-0.1-0.1-0.3-0.2-0.4-0.3c-0.1,0-0.1-0.1-0.2-0.1c-4.6-2.9-9.6-5.4-14.8-7.3c-6.2-4.7-13.1-8.3-20.5-10.7
			c-3.9-3.1-8.1-5.7-12.7-7.8c-2.6-1.2-5.3-2.2-8-3.1c-0.7-1-1.4-2-2.2-2.9c0-0.1-0.1-0.1-0.1-0.2c-2.7-3.1-5.5-6-8.5-8.5
			c-3-2.5-6.2-4.8-9.4-6.7c-3.3-1.9-6.7-3.5-10.3-4.8c-3.5-1.3-7.3-2.2-11-2.8c-0.1,0-0.3,0-0.4-0.1c-2.2-0.2-4.5-0.4-6.8-0.4
			c-1.2,0-2.4,0-3.6,0.1c-3.5,0.2-7.1,0.7-10.7,1.4c-3.6,0.7-7.2,1.7-10.9,3c-3.6,1.2-7.3,2.8-11,4.6c-3.9,1.9-8.5,4.4-13.5,7.4
			c-4.9,3-10.5,6.5-16.5,10.6c-6,4-12.6,8.7-19.7,13.9c-7.1,5.1-14.8,10.9-23,17.2l-77.7,59.3c-2.1,1.6-3.2,4.1-3.1,6.7
			c0,0.9,0.8,12.4,11.5,23.6l138.7,319.9c0.6,1.7,15,41.7,74.4,58.3c0.1,0,0.1,0,0.2,0c0.1,0,0.2,0.1,0.3,0.2c1,0.3,2,0.5,3,0.5
			c0.2,0,0.4,0,0.7,0c1.3-0.1,2.5-0.4,3.7-1l96.6-48.8c10-5,19.3-9.8,27.7-14.3c8.6-4.5,16.6-8.9,23.7-12.8
			c7.2-4,13.8-7.9,19.6-11.4c5.9-3.6,11.1-6.9,15.8-10.1c4.3-3.2,8.4-6.4,12.1-9.6c3.8-3.1,7.3-6.3,10.6-9.4
			c3.3-3.1,6.3-6.2,9.1-9.3c2.8-3.1,5.3-6.2,7.6-9.1c3-3.9,5.7-8,8-12.1c2.3-4.1,4.4-8.5,6.2-12.9c1.7-4.4,3.2-9,4.3-13.7
			c1.1-4.7,1.9-9.5,2.4-14.4c0.5-4.8,0.8-9.7,0.7-14.5C643,463.8,642.6,458.9,641.8,454z M463.7,202.8
			C463.7,202.8,463.7,202.9,463.7,202.8c0.1,0,0.1,0,0.2,0c1.8,0.4,3.6,0.9,5.4,1.5c-1.1,0-2.3-0.1-3.4-0.1c0,0,0,0-0.1,0
			c0,0,0,0,0,0c-1.5,0-2.9,0-4.4,0c-1.3,0-2.5,0.1-3.8,0.2c0,0,0,0-0.1,0c0,0-0.1,0-0.1,0c-2.7,0.2-5.5,0.4-8.3,0.8
			c-4.1,0.5-8.4,1.3-12.7,2.2c-4.3,0.9-8.7,2.1-13.1,3.4c-0.9,0.3-1.9,0.6-2.8,0.9c-4,1.3-8.5,2.8-13.4,4.7c-6,2.3-12.9,5-20.3,8.2
			c-7.4,3.1-15.6,6.8-24.4,10.8c-8.7,4-18.3,8.5-28.6,13.4l-97,46.5c-0.3,0.1-0.5,0.3-0.8,0.5c-0.3,0.1-0.6,0.2-1,0.3
			c-4.1,1.9-9.4,2.6-15.3,2.1l0.9-0.5l4.2-2.2l8.4-4.4l16.8-8.8l28.6-15l5.1-2.7c22.5-11.7,44.9-23.6,67.6-34.7l17.1-8.2l17.4-7.7
			c5.9-2.4,11.8-4.5,17.7-6.7c4-1.1,8-2.3,12-3.3c2.1-0.5,4.2-1,6.4-1.3c4.6-0.9,9.3-1.6,14.1-2c6-0.5,12.1-0.5,18,0.2
			c0,0,0.1,0,0.1,0c0,0,0.1,0,0.1,0c1.8,0.2,3.6,0.5,5.4,0.9C461.1,202.2,462.4,202.5,463.7,202.8z M445.9,193.8
			c0.1,0,0.2,0.1,0.2,0.1c0.1,0,0.3,0.1,0.4,0.2c5.5,2,10.8,4.6,15.7,7.8c0.2,0.2,0.5,0.3,0.7,0.5c0.1,0.1,0.2,0.2,0.4,0.3
			c-1.1-0.3-2.3-0.6-3.4-0.8c-1.9-0.4-3.8-0.7-5.7-0.9c0,0-0.1,0-0.1,0c0,0,0,0,0,0c-5.6-0.7-11.3-0.7-17-0.4
			c-2.9,0.2-5.9,0.6-8.8,1c0,0,0,0-0.1,0c-0.1,0-0.2,0-0.3,0.1c-1.9,0.3-3.9,0.6-5.8,0.9c-2.2,0.3-4.4,0.8-6.5,1.3
			c-4,1-8,2.2-11.9,3.2c-6,2.2-11.9,4.3-17.8,6.7l-17.4,7.6l-17.2,8.1c-22.8,11-45.3,22.8-67.8,34.4l-18.3,9.5l-15.4,8l-16.9,8.7
			l-8.4,4.4l-4.2,2.2l-2.1,1.1c-0.2,0.1-0.4,0.2-0.6,0.4c-2.4-0.3-4.8-0.8-7.3-1.5c-1.8-0.5-3.7-1.2-5.5-1.9l13.1-7.6l49.1-28.4
			c21.5-12.5,43-25,64.9-36.9l16.5-8.8l16.8-8.2c5.6-2.7,11.4-4.9,17.1-7.3c2.9-1.1,5.9-1.9,8.9-2.9c1.5-0.4,3-1,4.5-1.4l4.6-1
			c2.6-0.6,5.1-1,7.8-1.5c4.3-0.7,8.7-1.1,13.1-1.2c0,0,0,0,0,0c0,0,0,0,0,0c4.4-0.1,8.7,0.2,13,0.9c0,0,0.1,0,0.1,0
			c0,0,0.1,0,0.1,0c1,0.2,1.9,0.3,2.9,0.5C439.9,191.9,442.9,192.7,445.9,193.8z M425.6,183.2c0.1,0,0.1,0,0.2,0.1
			c0.1,0,0.2,0.1,0.3,0.1c6.8,2.3,13.3,5.7,19.1,9.9c-2.7-0.9-5.5-1.8-8.4-2.4c-1.1-0.3-2.3-0.4-3.4-0.6c0,0,0,0-0.1,0
			c0,0-0.1,0-0.1,0c-4.3-0.7-8.6-1-12.9-0.9c0,0,0,0,0,0c0,0,0,0,0,0c-4.4,0.1-8.7,0.4-13.1,1.1c-2.5,0.4-5.1,0.8-7.5,1.4l-4.6,0.9
			c-1.5,0.4-3,0.9-4.5,1.3c-3,0.9-6,1.7-8.9,2.8c-5.7,2.4-11.6,4.5-17.3,7.2l-16.9,8l-16.6,8.6c-22,11.7-43.6,24-65.3,36.3
			l-64.4,36.5c0,0,0,0,0,0c-2.5-1.1-4.7-2.4-6.7-3.7l63.1-39.5c10.9-6.7,21.6-13.6,32.6-20.3c10.9-6.7,21.8-13.4,32.9-19.7
			c5.5-3.2,11-6.4,16.7-9.3c5.7-2.9,11.2-6.1,17.1-8.6l8.7-3.9c2.9-1.2,6-2.1,9-3.2c1.5-0.5,3-1.1,4.5-1.5l4.7-1.1
			c3.1-0.7,6.2-1.6,9.4-1.8c2.5-0.5,5-0.8,7.5-0.9c4.2-0.3,8.4-0.1,12.6,0.4c0,0,0.1,0,0.1,0c0,0,0.1,0,0.1,0
			C417.6,181,421.6,181.9,425.6,183.2z M178.2,267.1c0-0.2-0.1-0.4-0.2-0.6l28.1-21.5l45.7-35c2-1.6,4.1-3.1,6-4.6
			c5.9-4.5,11.5-8.6,16.8-12.5c2.8-2,5.5-3.9,8.1-5.8c1.4-1,2.7-1.9,4-2.8c2.5-1.8,5-3.5,7.4-5.1c5.9-4,11.3-7.5,16.1-10.4
			c2.4-1.4,4.7-2.8,6.8-3.9c1.1-0.6,2.1-1.1,3.1-1.6c1-0.5,2-1,2.9-1.4c3.5-1.7,6.9-3.1,10.2-4.2c3.3-1.2,6.6-2.1,9.9-2.7
			c1.6-0.3,3.2-0.6,4.8-0.8c1.6-0.2,3.2-0.4,4.7-0.4c1.1-0.1,2.1-0.1,3.2-0.1c0.2,0,0.4,0,0.6,0c1.8,0,3.6,0.1,5.4,0.3h0
			c3.3,0.5,6.5,1.3,9.6,2.4c1.5,0.5,3.1,1.2,4.6,1.9c1.5,0.7,3,1.5,4.4,2.3c0.8,0.4,1.5,0.9,2.2,1.4c-1.4-0.3-2.9-0.6-4.3-0.9
			c-6-0.8-12.1-0.6-18.1,0.3c-11.9,2.2-23.5,6.4-34,12.3l-4,2.1l-3.9,2.3l-7.8,4.6c-5.3,3-10.3,6.4-15.3,9.7
			c-10.2,6.5-20.1,13.5-30,20.3c-9.9,6.9-19.7,13.9-29.6,20.9L179.9,273C179,270.9,178.5,268.9,178.2,267.1z M181.2,275.5l55.6-40.2
			c9.8-7,19.5-14.2,29.4-21.2c9.9-7,19.6-14,29.8-20.6c5-3.3,10-6.8,15.2-9.8l7.7-4.7l3.9-2.3l4-2.1c10.5-6,21.8-10.2,33.6-12.5
			c5.9-0.9,12-1.2,17.9-0.5c1.9,0.3,3.8,0.7,5.7,1.2c3.9,1,7.8,2.4,11.4,4.2c2.5,1.2,4.9,2.7,7.2,4.2c-2.6-0.7-5.2-1.3-7.8-1.7
			c-1-0.1-2-0.2-2.9-0.2c-2.1-0.1-4.3-0.2-6.4-0.2c-3.1,0.1-6.2,0.6-9.3,0.9c-3.1,0.2-6.1,1.1-9.2,1.8l-4.5,1.1
			c-1.5,0.5-2.9,1-4.4,1.5c-2.9,1.1-5.9,2-8.7,3.3l-8.4,4l-4.2,2c-1.4,0.7-2.7,1.5-4.1,2.2l-8.1,4.5c-5.5,2.9-10.8,6.2-16.1,9.5
			c-10.7,6.4-21.1,13.2-31.5,19.9c-10.4,6.7-20.7,13.7-31.1,20.5l-61,40.4C183.3,279.1,182.1,277.3,181.2,275.5z M246.9,242.2
			c10.3-6.9,20.5-14,30.9-20.8c10.4-6.8,20.7-13.8,31.3-20.2c5.3-3.3,10.5-6.6,15.9-9.6l8.1-4.6c1.4-0.8,2.7-1.6,4.1-2.3l4.2-2
			l8.4-4.1c2.8-1.3,5.8-2.2,8.6-3.3c1.5-0.5,2.9-1.1,4.4-1.6l4.5-1.1c3-0.7,6-1.7,9.1-1.9c3.1-0.3,6.1-0.9,9.2-1
			c2.3-0.1,4.7,0,7.1,0.2c0.7,0.1,1.5,0.1,2.2,0.2c3,0.4,6,1.1,8.9,1.9c0.1,0,0.1,0,0.2,0.1c0.7,0.5,1.4,1,2.1,1.5
			c-0.1-0.1-0.1-0.2-0.2-0.3c-0.2-0.3-0.4-0.5-0.6-0.8c2.5,0.8,5,1.7,7.4,2.8c4.4,2,8.5,4.4,12.3,7.3c-3.9-1.2-7.8-2.2-11.8-2.7
			c0,0-0.1,0-0.1,0c0,0-0.1,0-0.1,0c-4.1-0.5-8.2-0.6-12.3-0.4c-2.4,0.2-4.8,0.4-7.2,0.8c-3.2,0.2-6.3,1.1-9.5,1.7l-4.7,1
			c-1.6,0.4-3.1,1-4.6,1.4c-3,1-6.1,1.9-9.1,3.1l-8.8,3.9c-6,2.4-11.5,5.6-17.2,8.5c-5.7,2.8-11.3,6-16.9,9.2
			c-11.2,6.2-22.1,12.8-33.1,19.4c-11,6.5-21.8,13.3-32.7,20l-64.5,39.5c-2.1-1.6-3.9-3.2-5.5-4.9L246.9,242.2z M324,610.6
			c0-0.1-0.1-0.2-0.1-0.3L191.3,304.5l0,0l-0.3-0.6l-1.2-3.7l0,0l-1.3-4l-0.1-0.3c0.6,0.5,1.3,0.9,2,1.3c0.8,0.5,1.6,1,2.4,1.5
			c0.8,0.4,1.5,0.8,2.3,1.2c0.7,0.4,1.4,0.8,2.2,1.1c0.1,0,0.2,0.1,0.2,0.1c0.2,0.1,0.5,0.2,0.7,0.3c0.4,0.2,0.7,0.3,1.1,0.4
			c1.5,0.6,2.9,1.2,4.4,1.7c0.6,0.2,1.2,0.4,1.9,0.6c0.6,0.2,1.1,0.4,1.7,0.6c0,0,0.1,0,0.1,0c4.1,1.4,8.1,2.3,12,2.9
			c0.5,0.1,1,0.1,1.5,0.2c0.3,0,0.7,0.1,1,0.1c0.3,0,0.7,0.1,1,0.1c2.3,0.2,4.5,0.3,6.7,0.3l2.6,1.3l0.8,1.9l7.7,17.9l0.3,0.8
			l0.3,0.8l112.4,261.3l0,0l29.4,68.3C336.1,644,324.5,612,324,610.6z M634.4,482.3c-0.5,4.6-1.2,9.1-2.2,13.4
			c-1,4.3-2.3,8.6-3.9,12.6c-1.6,4.1-3.5,8.1-5.7,11.9c-2.2,3.8-4.7,7.6-7.4,11.2c-2.1,2.8-4.5,5.7-7.1,8.6
			c-2.6,2.9-5.5,5.9-8.7,8.8c-3.1,3-6.6,6-10.2,9.1c-3.6,3-7.6,6.2-11.6,9.2c-4.4,3-9.6,6.3-15.3,9.8c-5.8,3.5-12.3,7.3-19.4,11.3
			c-7,3.9-15,8.2-23.5,12.8c-8.4,4.4-17.7,9.2-27.6,14.2L395.1,664c-0.1,0.1-0.2,0.1-0.4,0.1l-33.3-74.7L249.1,328.3l-0.3-0.8
			l-0.3-0.8l-7.8-18.2l-0.6-1.4l-0.7-1.7c-0.1-0.2-0.1-0.5-0.2-0.7c0-0.3,0-0.5,0.1-0.8c0,0,0.1-0.1,0.1-0.1
			c0.4-0.3,0.8-0.7,1.1-1.1l50.7-24.3l46.2-22.2c10.2-4.9,19.8-9.4,28.5-13.4c8.7-4,16.9-7.6,24.2-10.7c7.3-3.1,14.1-5.8,20-8.1
			c5.6-2.1,10.6-3.8,14.9-5.2c0.3-0.1,0.5-0.2,0.8-0.3c4.2-1.3,8.4-2.3,12.5-3.2c3.3-0.7,6.5-1.3,9.7-1.7c0.8-0.1,1.5-0.2,2.3-0.3
			c2.9-0.4,5.7-0.6,8.5-0.8c1-0.1,2-0.1,3-0.2c1.3,0,2.6-0.1,3.9-0.1c2.4,0,4.8,0.1,7,0.2c4,0.4,7.8,1,11.5,1.8
			c3.2,0.7,6.3,1.6,9.4,2.7c0,0,0,0,0,0c0,0,0,0,0,0c0.4,0.1,0.9,0.3,1.3,0.4c3.4,1.2,6.7,2.7,9.8,4.4c3.1,1.7,6.1,3.6,8.9,5.6
			c2.9,2.3,5.7,4.7,8.3,7.4c2.6,2.7,5.1,5.6,7.4,8.8c2.1,2.8,4,5.9,5.8,9.1l84.2,160c2.6,4.6,5,9.6,7.2,14.9
			c1.9,4.6,3.5,9.3,4.7,13.9c1.3,4.6,2.3,9.2,2.9,13.7c0.7,4.5,1.1,9.1,1.1,13.6C635.2,473.2,635,477.8,634.4,482.3z"/>
		<linearGradient id="SVGID_3_" gradientUnits="userSpaceOnUse" x1="162.2879" y1="408.9016" x2="647.0597" y2="408.9016">
			<stop  offset="0" style="stop-color:#0F1236"/>
			<stop  offset="0.2992" style="stop-color:#23235B"/>
			<stop  offset="0.9129" style="stop-color:#0B819A"/>
		</linearGradient>
		<path class="st2" d="M394.3,676.1c-1.4,0-2.9-0.2-4.2-0.7c-0.1,0-0.2-0.1-0.3-0.1c0,0,0,0-0.1,0c-60.1-16.8-75.8-57.3-77-60.6
			L174.4,295.6c-11.3-12.1-12.1-24.3-12.1-25.7c-0.2-3.9,1.6-7.6,4.7-10l77.7-59.3c8.2-6.3,16-12.1,23.1-17.2
			c7.1-5.2,13.8-9.9,19.8-13.9c6.1-4.1,11.7-7.7,16.7-10.7c5.1-3.1,9.7-5.6,13.8-7.6c3.9-1.8,7.7-3.4,11.5-4.7
			c3.8-1.3,7.6-2.4,11.4-3.1c3.8-0.8,7.6-1.3,11.3-1.5c3.7-0.2,7.5-0.1,11.1,0.3c0.2,0,0.4,0,0.6,0.1c4,0.6,8,1.6,11.8,3
			c3.8,1.3,7.5,3,11,5.1c3.5,2,6.8,4.4,10,7.1c3.1,2.6,6.1,5.6,8.9,8.9l0.2,0.2c0.6,0.7,1.1,1.4,1.6,2.1c2.6,0.8,5,1.8,7.2,2.8
			c4.4,2.1,8.8,4.7,12.9,7.9c7.3,2.5,14.2,6.1,20.5,10.8c5.1,1.9,10.1,4.3,14.9,7.4c0.1,0.1,0.2,0.1,0.3,0.2
			c0.1,0.1,0.3,0.2,0.5,0.3l0.7,0.4c0.4,0.2,0.7,0.5,1.1,0.7c1.8,0.5,3.6,1,5.2,1.5l0.3,0c0.9,0,1.8,0.1,2.7,0.1l0.1,0
			c4.5,0.4,8.9,1.1,13.1,2.1c4.1,0.9,8.2,2.1,12.2,3.5c3.9,1.4,7.7,3.1,11.3,5c3.6,1.9,7.1,4.1,10.4,6.5c3.5,2.7,6.8,5.6,9.8,8.7
			c3,3.1,5.8,6.5,8.4,10c2.6,3.6,5,7.4,7.2,11.4l81.7,155.5c3.5,6,6.8,12.5,9.6,19.6c2.1,5.1,3.8,10.2,5.2,15.2
			c1.4,5.1,2.5,10.2,3.2,15.2l0,0c0.8,5,1.2,10.1,1.3,15.1c0.1,5-0.1,10.1-0.7,15c-0.5,5-1.3,10-2.5,14.9c-1.2,4.9-2.6,9.6-4.4,14.2
			c-1.8,4.6-4,9.1-6.4,13.4c-2.4,4.3-5.2,8.5-8.3,12.5c-2.3,3-4.9,6.2-7.8,9.4c-2.8,3.1-6,6.3-9.3,9.5c-3.3,3.2-7,6.4-10.8,9.6
			c-3.8,3.2-7.9,6.4-12.3,9.7l-0.1,0.1c-4.7,3.2-10,6.6-16,10.2c-5.9,3.6-12.5,7.4-19.8,11.5c-7.2,4-15.2,8.4-23.8,12.9
			c-8.5,4.5-17.9,9.3-27.8,14.3l-96.6,48.8c-1.6,0.8-3.4,1.3-5.2,1.4C395,676.1,394.6,676.1,394.3,676.1z M638.4,482.7
			c-0.5,4.8-1.3,9.4-2.3,13.9c-1.1,4.5-2.4,8.9-4.1,13.2c-1.7,4.2-3.7,8.4-5.9,12.4c-2.3,4-4.9,7.9-7.7,11.7
			c-2.1,2.9-4.6,5.9-7.3,8.8c-2.7,3-5.7,6-8.9,9.1c-3.2,3-6.7,6.1-10.4,9.2c-3.7,3.1-7.7,6.2-11.8,9.3l-0.2,0.1
			c-4.5,3-9.7,6.4-15.5,9.9c-5.7,3.5-12.3,7.3-19.5,11.3c-7.1,4-15,8.3-23.6,12.8c-8.4,4.4-17.7,9.2-27.7,14.3l-96.6,48.8
			c-0.5,0.3-1,0.4-1.2,0.4l-0.8,0.2c0.7-0.1,1.4-0.3,2-0.6l96.6-48.8c9.9-5,19.2-9.8,27.7-14.3c8.5-4.5,16.4-8.8,23.6-12.8
			c7.1-4,13.7-7.8,19.5-11.3c5.8-3.5,11-6.9,15.6-9.9c4.2-3.2,8.2-6.3,11.9-9.4c3.7-3.1,7.2-6.2,10.4-9.2c3.2-3,6.2-6.1,8.9-9.1
			c2.7-3,5.2-6,7.3-8.8c2.9-3.8,5.5-7.7,7.7-11.7c2.3-4,4.3-8.2,5.9-12.4c1.7-4.2,3-8.7,4.1-13.2
			C637.2,492.1,637.9,487.5,638.4,482.7c0.6-4.7,0.8-9.4,0.7-14c-0.1-4.7-0.5-9.4-1.2-14.1l0,0c-0.7-4.7-1.7-9.5-3-14.2
			c-1.3-4.7-3-9.5-4.9-14.3c-2.7-6.6-5.7-12.7-9-18.3l1.6,3c2.9,5.2,5.3,10.2,7.3,15.2c1.9,4.8,3.6,9.6,4.9,14.3
			c1.3,4.7,2.3,9.5,3,14.2c0.7,4.7,1.1,9.4,1.2,14.1C639.1,473.3,638.9,478.1,638.4,482.7z M391.6,667.6l0.3,0.1l-0.8-1.9L357.8,591
			L235.6,306.9c-0.3-0.7-0.5-1.5-0.5-2.2c0-0.8,0.1-1.5,0.4-2.2l0.2-0.5l0.1-0.2l0.3-0.7l0.9-0.6c0,0,0.1-0.1,0.1-0.1l0.5-0.7
			l-0.1,0.1l-0.7,0.1c0,0-0.1,0-0.1,0c-4.6,2.1-10.6,3-17.2,2.4l-9-0.8c3.3,1,6.6,1.8,9.8,2.3c0.2,0,0.5,0.1,0.7,0.1
			c0.2,0,0.5,0,0.7,0.1c0.3,0,0.6,0.1,1,0.1l0.5,0.1c0.2,0,0.3,0,0.5,0.1c2.5,0.2,4.4,0.3,6.2,0.2l1,0l4.8,2.5l155,360.3
			C390.9,667.4,391.3,667.5,391.6,667.6z M356.5,652.4c7.9,5,17.5,9.6,28.9,13.3l-3.3-1.2C372.7,661.2,364.2,657.1,356.5,652.4z
			 M393.3,660.4C393.3,660.4,393.3,660.4,393.3,660.4L393.3,660.4z M243.6,305.5L243.6,305.5l9.1,21.2l112.3,261.1l31.6,70.9
			l93.2-47.1c9.9-5,19.2-9.8,27.5-14.2c8.5-4.5,16.4-8.8,23.4-12.7c7.1-4,13.6-7.8,19.3-11.2c5.7-3.4,10.7-6.7,15.1-9.6
			c4-3,7.9-6.1,11.4-9c3.6-3,7-6,10-8.9c3.1-2.9,5.9-5.8,8.5-8.6c2.5-2.8,4.9-5.6,6.9-8.3c2.7-3.5,5.1-7.1,7.2-10.8
			c2.1-3.6,3.9-7.5,5.4-11.4c1.5-3.9,2.8-8,3.8-12.1c1-4.1,1.7-8.5,2.2-12.9l0-0.1c0.5-4.3,0.7-8.7,0.6-13
			c-0.1-4.3-0.4-8.7-1.1-13.1c-0.6-4.4-1.6-8.8-2.8-13.2c-1.2-4.4-2.8-9-4.6-13.4c-1.9-4.8-4.2-9.5-7-14.4l-84.2-160
			c-1.8-3.2-3.7-6.1-5.5-8.7c-2.2-3-4.5-5.8-7-8.3c-2.5-2.5-5.1-4.9-7.9-7c-2.6-1.9-5.4-3.7-8.4-5.2c-3-1.6-6.1-3-9.3-4.2
			c-0.2-0.1-0.4-0.1-0.5-0.2c-0.2-0.1-0.4-0.1-0.7-0.2l-0.2-0.1c-3-1-6-1.9-8.8-2.5c-3.5-0.8-7.2-1.4-11-1.7
			c-3.3-0.2-6.9-0.3-10.4-0.2c-0.6,0-1.3,0.1-1.9,0.1l-1,0.1c-3.1,0.2-5.8,0.4-8.2,0.7c-0.4,0.1-0.9,0.1-1.3,0.2
			c-0.3,0-0.6,0.1-0.9,0.1c-3.4,0.5-6.5,1.1-9.4,1.7c-4,0.9-8.1,1.9-12.2,3.2l-0.8,0.2c-4.3,1.3-9.2,3-14.7,5.1
			c-5.8,2.2-12.5,4.9-19.8,8c-7.2,3.1-15.4,6.7-24.1,10.7c-8.7,4-18.2,8.4-28.4,13.3L243.6,305.5z M195.8,304.7l131.8,304
			c0.1,0.2,0.1,0.4,0.2,0.5l0,0.1c0.4,1.2,9.9,27.7,48.2,44.3L229.4,312.7l-0.4-0.2c-1.8,0-3.8-0.1-6.1-0.3c-0.2,0-0.5-0.1-0.8-0.1
			l-0.4,0c-0.4,0-0.7-0.1-1.1-0.1c-0.2,0-0.3,0-0.5-0.1c-0.4,0-0.7-0.1-1.1-0.1c-4.2-0.6-8.4-1.7-12.6-3.1c0,0-0.1,0-0.1,0
			c-0.4-0.1-0.8-0.2-1.1-0.4c-0.2-0.1-0.4-0.1-0.6-0.2c-0.7-0.2-1.3-0.4-2-0.6c-1.5-0.5-3-1.1-4.7-1.8l-0.4-0.2
			c-0.3-0.1-0.5-0.2-0.8-0.3l-0.2-0.1c-0.2-0.1-0.4-0.2-0.6-0.2C195.9,304.8,195.8,304.7,195.8,304.7z M355.9,149.6
			c-1.1,0-2.3,0-3.4,0.1c-3.3,0.2-6.7,0.6-10.1,1.3c-3.4,0.7-6.9,1.7-10.4,2.9c-3.5,1.2-7,2.7-10.6,4.4c-3.8,1.8-8.2,4.2-13.1,7.2
			c-4.9,2.9-10.3,6.4-16.3,10.5c-5.9,4-12.5,8.6-19.6,13.8c-7.1,5.1-14.8,10.9-22.9,17.1l-77.7,59.3c-1,0.8-1.6,2-1.6,3.3
			c0,0.1,0.5,10.7,10.4,21l0.5,0.5l0.3,0.7l138.7,320l0.1,0.1c0.3,0.8,4.2,11.7,16.1,24.1c-1.1-1.1-2.1-2.3-3.1-3.5
			c-9.2-10.6-12.4-19.3-12.9-20.6l-0.1-0.2L187.3,305.2l-6.1-19.5l9.7,6.8c0.6,0.4,1.2,0.8,1.9,1.2c0.8,0.5,1.5,1,2.3,1.4
			c0.5,0.3,1,0.5,1.5,0.8l0.7,0.3c0.3,0.2,0.6,0.3,0.9,0.5c0.4,0.2,0.7,0.4,1.1,0.6c0.1,0.1,0.2,0.1,0.3,0.2c0,0,0.1,0,0.1,0
			c0.2,0.1,0.3,0.1,0.5,0.2c0.2,0.1,0.3,0.1,0.5,0.2c0.2,0.1,0.4,0.1,0.5,0.2c1.5,0.6,2.8,1.1,4.2,1.6c0.6,0.2,1.2,0.4,1.7,0.6
			c0.1,0,0.1,0,0.2,0.1l0.8-0.4c-1.5-0.5-3.1-1-4.9-1.7l-7.7-3l0.5-0.3c-1.2-0.7-2.4-1.4-3.5-2.1l-0.4-0.3l-0.1,0l-0.9-0.7l-3.7-2.5
			l0.3-0.2c-1.2-1-2.4-2.1-3.5-3.3l-0.1,0.1l-1.4-1.7l-2-2.2l0.2-0.1c-0.8-1.1-1.5-2.1-2.2-3.2l-0.3,0.2l-1.3-3.1l-0.9-1.7l0.1-0.1
			c-0.9-2.2-1.6-4.4-1.9-6.5l-0.8-2.8l2.2-1.7l73.9-56.4c2.1-1.6,4.1-3.1,6-4.6c5.9-4.5,11.6-8.7,16.9-12.5c2.8-2,5.5-4,8.1-5.8
			c1.4-1,2.7-1.9,4-2.8c2.9-2,5.3-3.7,7.4-5.1c6-4,11.4-7.5,16.3-10.5c2.5-1.5,4.8-2.8,6.9-4c1.1-0.6,2.2-1.2,3.2-1.7
			c1-0.5,2-1,3-1.5c3.6-1.7,7.2-3.2,10.6-4.4c3.5-1.2,7-2.2,10.4-2.9c1.7-0.4,3.4-0.6,5.1-0.9c1.7-0.2,3.4-0.4,5-0.5
			c1.3-0.1,2.7-0.2,4-0.1c2.2,0,4,0.1,5.8,0.3l0.2,0c3.5,0.6,7,1.4,10.3,2.6c1.7,0.6,3.3,1.3,4.9,2c1.6,0.7,3.2,1.6,4.7,2.5
			c0.8,0.5,1.5,0.9,2.2,1.4l0.9,0.6c0.1,0,0.2,0,0.3,0.1c-1.1-0.7-2.2-1.4-3.3-2.1c-3.1-1.8-6.3-3.3-9.6-4.5
			c-3.3-1.2-6.8-2-10.3-2.6l-0.2,0C360.2,149.8,358.1,149.6,355.9,149.6z M494.8,213.3c0.1,0,0.2,0.1,0.4,0.1
			c0.3,0.1,0.6,0.2,0.9,0.3c3.6,1.3,7,2.8,10.3,4.6c3.3,1.7,6.4,3.7,9.4,5.9c3.2,2.4,6.1,5.1,8.8,7.9c2.7,2.8,5.3,5.9,7.7,9.2
			c2,2.8,4.1,6,6,9.5l0.1,0.1L601.7,371L539,251.8c-2-3.7-4.3-7.2-6.7-10.5c-2.4-3.3-5-6.4-7.7-9.2c-2.7-2.8-5.7-5.5-8.8-7.9
			c-2.9-2.1-6.1-4.1-9.4-5.9c-3.3-1.8-6.8-3.3-10.3-4.6c-3.6-1.3-7.4-2.4-11.2-3.3c-1.4-0.3-2.9-0.6-4.4-0.9l0,0
			c1.5,0.3,2.9,0.5,4.4,0.9c3.1,0.7,6.4,1.6,9.8,2.8L494.8,213.3z M236,301.5C236,301.5,236,301.5,236,301.5L236,301.5z
			 M457.6,208.6c-3,0.2-5.6,0.4-8,0.8c-4,0.5-8.2,1.2-12.3,2.1c-4.2,0.9-8.5,2-12.8,3.3c-0.9,0.3-1.8,0.6-2.8,0.9
			c-4,1.3-8.4,2.8-13.2,4.6c-6,2.3-12.8,5-20.1,8.1c-7.4,3.1-15.6,6.8-24.3,10.7c-8.6,3.9-18.2,8.4-28.6,13.4l-97,46.5l-0.1,0.1
			c0,0,0,0,0,0l97.1-46.6c10.2-4.9,19.9-9.4,28.6-13.4c8.8-4,17-7.6,24.3-10.7c7.4-3.1,14.2-5.9,20.1-8.1c5.6-2.1,10.7-3.9,15.1-5.2
			l0.3-0.1c0.2-0.1,0.4-0.1,0.5-0.2c4.3-1.3,8.6-2.4,12.8-3.3c3.1-0.7,6.4-1.3,10-1.8c0.3,0,0.6-0.1,0.8-0.1c0.5-0.1,1-0.2,1.5-0.2
			c2.6-0.3,5.5-0.6,8.8-0.8l0.9-0.1c0.7,0,1.4-0.1,2.1-0.1c1.2,0,2.5-0.1,3.7-0.1c-1.3,0-2.5,0-3.7,0c-0.9,0-1.9,0.1-2.9,0.2
			L457.6,208.6L457.6,208.6z M214.4,293.5c0.7,0.1,1.4,0.3,2.1,0.4l74.9-38.8c18.9-9.8,38.5-19.9,58-29.3l17.3-8.2l17.6-7.6
			c4.9-2,10-3.8,14.9-5.6l3.4-1.2c1.5-0.4,3-0.8,4.5-1.2c2.4-0.7,5-1.4,7.5-2c1.8-0.5,4.3-1,6.8-1.4c2-0.4,4-0.7,5.9-0.9
			c0.1,0,0.2,0,0.4-0.1l0.1,0c3.4-0.5,6.3-0.8,9-1c1.4-0.1,2.7-0.2,4.1-0.2c-1.6-0.5-3.2-0.9-4.9-1.2c-0.7-0.2-1.4-0.3-2.1-0.4
			l-0.7-0.1c0,0-0.1,0-0.1,0c-2.4-0.4-5-0.7-7.7-0.8l0.1,0.2l-0.3-0.2c-1.4-0.1-2.8-0.1-4.2-0.1l-0.3,0c-3.9,0.1-8.2,0.4-12.4,1.1
			c-2.6,0.4-5.2,0.9-7.5,1.4l-4.5,1c-0.8,0.2-1.7,0.5-2.6,0.8c-0.6,0.2-1.1,0.4-1.7,0.5c-1,0.3-2.1,0.6-3.1,1
			c-1.9,0.6-3.7,1.1-5.4,1.8c-2,0.9-4,1.7-6.1,2.5c-3.6,1.5-7.3,3-10.8,4.7l-16.7,8.1l-16.4,8.7c-19.5,10.5-39,21.9-57.9,32.8
			L214.4,293.5z M367.2,192.1l-8.8,3.9c-3.9,1.6-7.6,3.6-11.6,5.7c-1.7,0.9-3.5,1.9-5.3,2.8c-5.7,2.9-11.2,6.1-16.5,9.2
			c-10.1,5.7-20.1,11.8-29.8,17.8l-3,1.8c-7,4.3-14.1,8.7-21,13c-3.8,2.4-7.7,4.8-11.5,7.2l-36.4,22.8l47.2-26.7
			c19.1-10.8,38.8-22,58.6-32.5l16.7-8.7l16.9-8c3.8-1.8,7.6-3.3,11.4-4.8c2-0.8,4.1-1.6,6.1-2.5l0.2-0.1c2-0.7,4-1.3,6-1.9
			c1-0.3,2.1-0.6,3.1-0.9c0.6-0.2,1.1-0.3,1.6-0.5c1-0.3,2-0.6,3.1-0.9l0.2,0l4.6-0.9c2.4-0.5,5-1,7.7-1.4c2.7-0.4,5.4-0.7,8-0.9
			l-1.4-1.1c-0.1,0-0.2,0-0.4,0l-0.3,0c-3.8-0.5-7.8-0.6-11.7-0.4c-2.6,0.2-4.9,0.5-7,0.9l-0.5,0.1c-2,0.1-4.1,0.6-6.3,1.1
			c-0.8,0.2-1.6,0.4-2.4,0.6l-4.6,1.1c-0.7,0.2-1.6,0.5-2.5,0.8c-0.5,0.2-1.1,0.4-1.6,0.6c-1.1,0.4-2.1,0.7-3.2,1.1
			C370.8,190.8,369,191.4,367.2,192.1z M249.1,245.5l-43.9,29.7l49.2-30.1c3.9-2.4,7.7-4.7,11.6-7.1c6.9-4.3,14.1-8.7,21.2-12.9
			l2.9-1.7c9.9-5.9,20-12,30.3-17.7c5.4-3.1,11.1-6.3,17-9.2c1.7-0.9,3.4-1.8,5.1-2.6c3.9-2.1,8-4.2,12.3-5.9l8.9-3.9
			c2.1-0.8,4.1-1.5,6.1-2.1c1.1-0.3,2.1-0.7,3.1-1l0.1,0c0.5-0.2,1-0.3,1.5-0.5c1-0.4,2.1-0.7,3.3-1l4.8-1.1
			c0.8-0.2,1.6-0.3,2.4-0.5c2.4-0.5,4.8-1.1,7.5-1.3c2.2-0.4,4.6-0.7,7.4-0.8c0.3,0,0.6,0,1-0.1c-2.3-0.6-4.6-1-6.9-1.4
			c-0.3,0-0.7-0.1-1.1-0.1c-0.3,0-0.5,0-0.8,0c-2.3-0.2-4.5-0.2-6.6-0.2c-1.8,0.1-3.6,0.3-5.5,0.6c-1.1,0.1-2.3,0.3-3.4,0.4l-0.2,0
			c-1.9,0.1-3.8,0.6-5.8,1.1c-0.9,0.2-1.8,0.5-2.6,0.7l-4.3,1.1c-0.8,0.3-1.6,0.6-2.5,0.9c-0.5,0.2-1,0.4-1.6,0.6
			c-1,0.4-2.1,0.8-3.2,1.2c-1.8,0.6-3.6,1.3-5.2,2l-12.5,6.1c-0.8,0.4-1.6,0.9-2.4,1.4c-0.5,0.3-1,0.6-1.5,0.8l-8.1,4.6
			c-4.7,2.6-9.3,5.4-13.7,8.2l-2.1,1.3c-9.1,5.5-18.1,11.5-26.8,17.2l-4.4,2.9c-6.7,4.4-13.4,9-20,13.4
			C256.4,240.6,252.8,243,249.1,245.5L249.1,245.5z M174.3,267.7C174.3,267.7,174.3,267.7,174.3,267.7
			C174.3,267.7,174.3,267.7,174.3,267.7L174.3,267.7z M370.3,225.5l-17.1,8.2c-17.1,8.3-34.3,17.3-51,26l29.9-14.4
			c10.4-5,20-9.5,28.7-13.5c8.8-4,17.1-7.7,24.5-10.8c7.4-3.2,14.3-5.9,20.4-8.2c4.9-1.8,9.5-3.4,13.6-4.8c1-0.3,2-0.6,2.9-0.9
			c1-0.3,1.9-0.6,2.9-0.8c-0.7,0.1-1.5,0.3-2.2,0.4l-0.1,0c-2.2,0.3-4.2,0.8-6,1.3c-2.4,0.6-4.9,1.3-7.3,2c-1.5,0.4-3,0.9-4.5,1.3
			l-2.9,1.1c-4.8,1.8-9.8,3.6-14.5,5.5L370.3,225.5z M324.6,180.2l-11.5,7c-4.1,2.4-8,5-11.9,7.6c-1.1,0.7-2.1,1.4-3.2,2.1
			c-8.2,5.3-16.4,11.1-24.2,16.7c-1.8,1.3-3.6,2.6-5.4,3.8c-6.3,4.5-12.7,9.1-18.9,13.6c-3.5,2.5-6.9,5-10.4,7.5l-24.7,17.9
			l29.2-19.3c3.7-2.4,7.3-4.9,11-7.3c6.6-4.4,13.4-8.9,20.1-13.2l4.4-2.9c8.8-5.7,17.9-11.6,27.2-17.1l2-1.2
			c4.6-2.8,9.3-5.7,14.2-8.3l8.1-4.5c0.5-0.3,0.9-0.5,1.4-0.8c0.9-0.5,1.8-1,2.8-1.5l0.1-0.1l12.7-6c2-1,4.1-1.7,6-2.3
			c1-0.3,2-0.7,3-1.1l0.1,0c0.5-0.2,1-0.4,1.5-0.5c1-0.4,2-0.7,3-1l0.3-0.1l4.5-1.1c0.9-0.2,1.7-0.4,2.5-0.6
			c2.3-0.6,4.7-1.2,7.3-1.3c1-0.1,2-0.2,3-0.3c-0.4-0.1-0.8-0.1-1.2-0.2c-5.1-0.6-10.7-0.5-16.7,0.5c-11.5,2.3-22.3,6.3-32.4,12.1
			l-0.1,0.1L324.6,180.2z M355.7,157.6c-0.9,0-1.9,0-2.8,0.1c-1.4,0.1-2.9,0.2-4.4,0.4c-1.5,0.2-3,0.5-4.5,0.8
			c-3,0.6-6.2,1.5-9.4,2.6c-3.2,1.1-6.5,2.5-9.8,4c-0.9,0.4-1.8,0.9-2.8,1.4c-1,0.5-2,1-3,1.6c-2.1,1.1-4.3,2.4-6.7,3.8
			c-4.7,2.8-10.1,6.3-15.9,10.2c-2.1,1.4-4.5,3.1-7.3,5c-1.3,0.9-2.6,1.9-4,2.8c-2.6,1.8-5.3,3.8-8.1,5.8c-5.2,3.8-10.9,8-16.8,12.4
			c-2,1.5-4,3-6,4.6L214.1,244l19.1-13.5c3.5-2.5,7-5,10.5-7.4c6.2-4.4,12.7-9,19.1-13.5c1.8-1.2,3.6-2.5,5.4-3.7
			c8-5.6,16.3-11.3,24.7-16.7c1-0.7,2.1-1.4,3.2-2.1c4-2.6,8.1-5.3,12.3-7.7l11.9-7l4-2c10.6-5.9,22.1-10.2,34.2-12.5
			c-0.6,0-1.3,0-2-0.1c-0.2,0-0.4,0-0.5,0C355.9,157.6,355.8,157.6,355.7,157.6z"/>
	</g>
	<g>
		<linearGradient id="SVGID_4_" gradientUnits="userSpaceOnUse" x1="363.6991" y1="427.8724" x2="500.9019" y2="427.8724">
			<stop  offset="0" style="stop-color:#0F1236"/>
			<stop  offset="0.2992" style="stop-color:#23235B"/>
			<stop  offset="0.9129" style="stop-color:#0B819A"/>
		</linearGradient>
		<polygon class="st3" points="500.9,377 363.7,365.6 422.4,490.1 		"/>
		
			<linearGradient id="SVGID_5_" gradientUnits="userSpaceOnUse" x1="2309.5728" y1="250.2978" x2="2455.2017" y2="250.2978" gradientTransform="matrix(0.4267 0.9044 -0.9044 0.4267 -343.2249 -1858.9762)">
			<stop  offset="0" style="stop-color:#0F1236"/>
			<stop  offset="0.2992" style="stop-color:#23235B"/>
			<stop  offset="0.9129" style="stop-color:#0B819A"/>
		</linearGradient>
		<path class="st5" d="M422.4,494.1c-0.1,0-0.2,0-0.3,0c-1.4-0.1-2.7-1-3.3-2.3l-58.7-124.5c-0.6-1.3-0.5-2.8,0.3-4
			c0.8-1.2,2.2-1.8,3.6-1.7L501.2,373c1.4,0.1,2.7,1,3.3,2.3c0.6,1.3,0.5,2.8-0.3,4l-78.5,113.1C425,493.5,423.7,494.1,422.4,494.1z
			 M370.2,370.2l52.9,112l70.6-101.8L370.2,370.2z"/>
	</g>
</g>
</svg>
